<svg width="564" height="546" viewBox="0 0 564 546" fill="none" xmlns="http://www.w3.org/2000/svg">
<path d="M318.749 181.027C319.724 181.027 320.586 181.474 321.173 182.169C322.068 179.043 324.913 176.746 328.326 176.746C330.884 176.746 333.141 178.035 334.49 179.998C336.28 174.261 341.643 170.087 347.974 170.087C352.075 170.087 355.755 171.85 358.34 174.635C362.1 165.593 371.015 159.221 381.421 159.221C394.457 159.221 405.149 169.199 406.305 181.935C406.879 181.374 407.654 181.027 408.515 181.027C410.279 181.027 411.708 182.456 411.708 184.219H315.563C315.563 182.456 316.993 181.027 318.749 181.027Z" stroke="#333333" stroke-width="2" stroke-linecap="round" stroke-linejoin="round"/>
<path d="M376.605 163.509C378.164 163.148 379.769 162.965 381.421 162.961C391.879 162.961 400.575 170.374 402.344 180.479M364.23 171.717C366.027 169.239 368.324 167.195 370.955 165.706M408.903 184.619H408.909" stroke="#333333" stroke-width="2" stroke-linecap="round" stroke-linejoin="round"/>
<path d="M-3.30364 191.091C-1.97461 191.091 -0.79249 191.706 0.00893509 192.648C1.23779 188.373 5.13139 185.228 9.79301 185.228C13.2992 185.228 16.3914 186.997 18.2347 189.682C20.6857 181.822 28.0254 176.118 36.6942 176.118C42.3041 176.118 47.3464 178.522 50.8727 182.343C56.0218 169.961 68.2235 161.252 82.4689 161.252C100.307 161.252 114.94 174.903 116.516 192.327C117.304 191.566 118.373 191.091 119.555 191.091C121.966 191.091 123.916 193.048 123.916 195.459H-7.67139C-7.67139 193.048 -5.71459 191.091 -3.30364 191.091Z" stroke="#333333" stroke-width="2" stroke-linecap="round" stroke-linejoin="round"/>
<path d="M75.8704 167.115C78.0075 166.621 80.207 166.372 82.4688 166.367C96.7742 166.367 108.675 176.512 111.1 190.337M58.9336 178.349C61.398 174.949 64.5436 172.158 68.1433 170.121M120.082 196H120.089" stroke="#333333" stroke-width="2" stroke-linecap="round" stroke-linejoin="round"/>
<path d="M177.037 30.8464C178.373 30.8464 179.555 31.4541 180.356 32.4025C181.578 28.1282 185.472 24.9826 190.14 24.9826C193.646 24.9826 196.732 26.7458 198.575 29.4372C201.033 21.5766 208.366 15.8731 217.035 15.8731C222.651 15.8731 227.687 18.2774 231.22 22.0975C236.369 9.71549 248.571 1 262.816 1C280.648 1 295.28 14.6576 296.863 32.0752C297.651 31.3139 298.72 30.8464 299.895 30.8464C302.306 30.8464 304.263 32.7965 304.263 35.2075H172.676C172.676 32.7965 174.626 30.8464 177.037 30.8464Z" stroke="#333333" stroke-width="2" stroke-linecap="round" stroke-linejoin="round"/>
<path d="M256.218 6.8704C258.355 6.37174 260.555 6.12018 262.816 6.11572C277.122 6.11572 289.023 16.2604 291.447 30.0917M239.281 18.1037C241.746 14.7043 244.891 11.906 248.484 9.87574M300.423 35.7551H300.43" stroke="#333333" stroke-width="2" stroke-linecap="round" stroke-linejoin="round"/>
<path d="M251.375 137.689H324.064" stroke="#333333" stroke-width="2" stroke-linecap="round" stroke-linejoin="round"/>
<path d="M334.022 137.689H354.525" stroke="#333333" stroke-width="2" stroke-linecap="round" stroke-linejoin="round"/>
<path d="M400.39 559.57H391.44V356.09H400.39V559.57Z" stroke="#333333" stroke-width="2" stroke-linecap="round" stroke-linejoin="round"/>
<path d="M562.46 541.3H400.39V534.13H562.46V541.3Z" stroke="#333333" stroke-width="2" stroke-linecap="round" stroke-linejoin="round"/>
<path d="M557.63 541.3H400.39V559.57H557.63V541.3Z" stroke="#333333" stroke-width="2" stroke-linecap="round" stroke-linejoin="round"/>
<path d="M542.39 515.86H400.39V508.7H542.39V515.86Z" stroke="#333333" stroke-width="2" stroke-linecap="round" stroke-linejoin="round"/>
<path d="M538.16 515.86H400.39V534.13H538.16V515.86Z" stroke="#333333" stroke-width="2" stroke-linecap="round" stroke-linejoin="round"/>
<path d="M520.08 490.43H400.39V483.26H520.08V490.43Z" stroke="#333333" stroke-width="2" stroke-linecap="round" stroke-linejoin="round"/>
<path d="M516.52 490.43H400.39V508.7H516.52V490.43Z" stroke="#333333" stroke-width="2" stroke-linecap="round" stroke-linejoin="round"/>
<path d="M500.26 464.99H400.39V457.83H500.26V464.99Z" stroke="#333333" stroke-width="2" stroke-linecap="round" stroke-linejoin="round"/>
<path d="M497.28 464.99H400.39V483.26H497.28V464.99Z" stroke="#333333" stroke-width="2" stroke-linecap="round" stroke-linejoin="round"/>
<path d="M481.42 439.56H400.39V432.39H481.42V439.56Z" stroke="#333333" stroke-width="2" stroke-linecap="round" stroke-linejoin="round"/>
<path d="M479.01 439.56H400.39V457.83H479.01V439.56Z" stroke="#333333" stroke-width="2" stroke-linecap="round" stroke-linejoin="round"/>
<path d="M464.57 414.12H400.39V406.96H464.57V414.12Z" stroke="#333333" stroke-width="2" stroke-linecap="round" stroke-linejoin="round"/>
<path d="M462.66 414.12H400.39V432.39H462.66V414.12Z" stroke="#333333" stroke-width="2" stroke-linecap="round" stroke-linejoin="round"/>
<path d="M448.84 388.69H400.39V381.52H448.84V388.69Z" stroke="#333333" stroke-width="2" stroke-linecap="round" stroke-linejoin="round"/>
<path d="M447.4 388.69H400.39V406.96H447.4V388.69Z" stroke="#333333" stroke-width="2" stroke-linecap="round" stroke-linejoin="round"/>
<path d="M426.9 363.25H400.39V356.09H426.9V363.25Z" stroke="#333333" stroke-width="2" stroke-linecap="round" stroke-linejoin="round"/>
<path d="M426.11 363.25H400.39V381.52H426.11V363.25Z" stroke="#333333" stroke-width="2" stroke-linecap="round" stroke-linejoin="round"/>
<path d="M333.07 559.57H342.02V356.09H333.07V559.57Z" stroke="#333333" stroke-width="2" stroke-linecap="round" stroke-linejoin="round"/>
<path d="M171 541.3H333.07V534.13H171V541.3Z" stroke="#333333" stroke-width="2" stroke-linecap="round" stroke-linejoin="round"/>
<path d="M175.82 541.3H333.07V559.57H175.82V541.3Z" stroke="#333333" stroke-width="2" stroke-linecap="round" stroke-linejoin="round"/>
<path d="M191.07 515.86H333.07V508.7H191.07V515.86Z" stroke="#333333" stroke-width="2" stroke-linecap="round" stroke-linejoin="round"/>
<path d="M195.3 515.86H333.07V534.13H195.3V515.86Z" stroke="#333333" stroke-width="2" stroke-linecap="round" stroke-linejoin="round"/>
<path d="M213.38 490.43H333.07V483.26H213.38V490.43Z" stroke="#333333" stroke-width="2" stroke-linecap="round" stroke-linejoin="round"/>
<path d="M215.94 491.43H332.07V509.7H215.94V491.43Z" stroke="#333333" stroke-width="2" stroke-linecap="round" stroke-linejoin="round"/>
<path d="M233.2 464.99H333.07V457.83H233.2V464.99Z" stroke="#333333" stroke-width="2" stroke-linecap="round" stroke-linejoin="round"/>
<path d="M236.17 464.99H333.07V483.26H236.17V464.99Z" stroke="#333333" stroke-width="2" stroke-linecap="round" stroke-linejoin="round"/>
<path d="M252.03 439.56H333.07V432.39H252.03V439.56Z" stroke="#333333" stroke-width="2" stroke-linecap="round" stroke-linejoin="round"/>
<path d="M254.45 439.56H333.07V457.83H254.45V439.56Z" stroke="#333333" stroke-width="2" stroke-linecap="round" stroke-linejoin="round"/>
<path d="M268.89 414.12H333.07V406.96H268.89V414.12Z" stroke="#333333" stroke-width="2" stroke-linecap="round" stroke-linejoin="round"/>
<path d="M270.8 414.12H333.07V432.39H270.8V414.12Z" stroke="#333333" stroke-width="2" stroke-linecap="round" stroke-linejoin="round"/>
<path d="M284.62 388.69H333.07V381.52H284.62V388.69Z" stroke="#333333" stroke-width="2" stroke-linecap="round" stroke-linejoin="round"/>
<path d="M286.06 388.69H333.07V406.96H286.06V388.69Z" stroke="#333333" stroke-width="2" stroke-linecap="round" stroke-linejoin="round"/>
<path d="M306.56 363.25H333.07V356.09H306.56V363.25Z" stroke="#333333" stroke-width="2" stroke-linecap="round" stroke-linejoin="round"/>
<path d="M307.35 363.25H333.07V381.52H307.35V363.25Z" stroke="#333333" stroke-width="2" stroke-linecap="round" stroke-linejoin="round"/>
<path d="M342.02 356.09H391.44" stroke="#333333" stroke-width="2" stroke-linecap="round" stroke-linejoin="round"/>
<path d="M342.02 367.21H363.41" stroke="#333333" stroke-width="2" stroke-linecap="round" stroke-linejoin="round"/>
<path d="M370.12 367.21H378.75" stroke="#333333" stroke-width="2" stroke-linecap="round" stroke-linejoin="round"/>
<path d="M391.44 386.87H362.21" stroke="#333333" stroke-width="2" stroke-linecap="round" stroke-linejoin="round"/>
<path d="M355.49 394.07H370.12" stroke="#333333" stroke-width="2" stroke-linecap="round" stroke-linejoin="round"/>
<path d="M404.96 335.42H328.49V307H404.96V335.42Z" stroke="#333333" stroke-width="2" stroke-linecap="round" stroke-linejoin="round"/>
<path d="M401.82 335.42H331.63V356.09H401.82V335.42Z" stroke="#333333" stroke-width="2" stroke-linecap="round" stroke-linejoin="round"/>
<path d="M328.49 313.9H355.49" stroke="#333333" stroke-width="2" stroke-linecap="round" stroke-linejoin="round"/>
<path d="M361.43 313.9H371.62" stroke="#333333" stroke-width="2" stroke-linecap="round" stroke-linejoin="round"/>
<path d="M352.56 343.51H343.26V356.09H352.56V343.51Z" stroke="#333333" stroke-width="2" stroke-linecap="round" stroke-linejoin="round"/>
<path d="M371.38 343.51H362.08V356.09H371.38V343.51Z" stroke="#333333" stroke-width="2" stroke-linecap="round" stroke-linejoin="round"/>
<path d="M390.2 343.51H380.89V356.09H390.2V343.51Z" stroke="#333333" stroke-width="2" stroke-linecap="round" stroke-linejoin="round"/>
<path d="M343.26 424.17H371.62" stroke="#333333" stroke-width="2" stroke-linecap="round" stroke-linejoin="round"/>
<path d="M362.21 431.12H380.89" stroke="#333333" stroke-width="2" stroke-linecap="round" stroke-linejoin="round"/>
<path d="M350.24 457.83H362.08" stroke="#333333" stroke-width="2" stroke-linecap="round" stroke-linejoin="round"/>
<path d="M371.55 457.83H378.75" stroke="#333333" stroke-width="2" stroke-linecap="round" stroke-linejoin="round"/>
<path d="M342.02 483.26H374.44" stroke="#333333" stroke-width="2" stroke-linecap="round" stroke-linejoin="round"/>
<path d="M366.73 476.39H385.55" stroke="#333333" stroke-width="2" stroke-linecap="round" stroke-linejoin="round"/>
<path d="M391.44 492.99H362.08" stroke="#333333" stroke-width="2" stroke-linecap="round" stroke-linejoin="round"/>
<path d="M341.99 515.52H374.44" stroke="#333333" stroke-width="2" stroke-linecap="round" stroke-linejoin="round"/>
<path d="M363.41 520.47H380.89" stroke="#333333" stroke-width="2" stroke-linecap="round" stroke-linejoin="round"/>
<path d="M350.24 541.3H374.44" stroke="#333333" stroke-width="2" stroke-linecap="round" stroke-linejoin="round"/>
<path d="M395.92 328.29H376.82" stroke="#333333" stroke-width="2" stroke-linecap="round" stroke-linejoin="round"/>
<path d="M371.62 328.29H366.52" stroke="#333333" stroke-width="2" stroke-linecap="round" stroke-linejoin="round"/>
<path d="M133.54 441.81V356.8H-148.83V441.91" stroke="#333333" stroke-width="2" stroke-linecap="round" stroke-linejoin="round"/>
<path d="M-148.83 453.31V571.21H133.54V453.31" stroke="#333333" stroke-width="2" stroke-linecap="round" stroke-linejoin="round"/>
<path d="M133.54 333.45H-148.83V305.86H133.54V333.45Z" stroke="#333333" stroke-width="2" stroke-linecap="round" stroke-linejoin="round"/>
<path d="M139.58 296.57H-154.87L-149.79 305.93H134.5L139.58 296.57Z" stroke="#333333" stroke-width="2" stroke-linecap="round" stroke-linejoin="round"/>
<path d="M149.7 347.24H-165V333.45H149.7V347.24Z" stroke="#333333" stroke-width="2" stroke-linecap="round" stroke-linejoin="round"/>
<path d="M149.7 347.24H-165L-148.83 356.8H133.54L149.7 347.24Z" stroke="#333333" stroke-width="2" stroke-linecap="round" stroke-linejoin="round"/>
<path d="M-8.1499 401.63C-30.6699 401.63 -48.9399 419.89 -48.9399 442.42V571.21H33.6401V443.42C33.6401 420.34 14.9301 401.63 -8.1499 401.63Z" stroke="#333333" stroke-width="2" stroke-linecap="round" stroke-linejoin="round"/>
<path d="M-7.65009 414.36C-24.4601 414.36 -38.1001 427.99 -38.1001 444.81V571.21H22.8099V444.81C22.8099 427.99 9.16991 414.36 -7.65009 414.36Z" stroke="#333333" stroke-width="2" stroke-linecap="round" stroke-linejoin="round"/>
<path d="M13.2099 396.6C7.0099 393.76 0.109905 392.18 -7.1601 392.18H-7.9101C-30.8701 392.18 -50.1701 407.9 -55.6201 429.16" stroke="#333333" stroke-width="2" stroke-linecap="round" stroke-linejoin="round"/>
<path d="M37.3499 420.62C34.3999 414.25 30.1199 408.63 24.8799 404.09" stroke="#333333" stroke-width="2" stroke-linecap="round" stroke-linejoin="round"/>
<path d="M41.8799 525.2V463.92" stroke="#333333" stroke-width="2" stroke-linecap="round" stroke-linejoin="round"/>
<path d="M41.8799 550.53V536.82" stroke="#333333" stroke-width="2" stroke-linecap="round" stroke-linejoin="round"/>
<path d="M33.6401 453.31H133.54L140.63 449.35" stroke="#333333" stroke-width="2" stroke-linecap="round" stroke-linejoin="round"/>
<path d="M7.4502 373.6H58.7202" stroke="#333333" stroke-width="2" stroke-linecap="round" stroke-linejoin="round"/>
<path d="M73.3701 373.6H82.2701" stroke="#333333" stroke-width="2" stroke-linecap="round" stroke-linejoin="round"/>
<path d="M33.6401 442.42H140.77V449.35H33.6401" stroke="#333333" stroke-width="2" stroke-linecap="round" stroke-linejoin="round"/>
<path d="M58.7202 391.32H121.55V423.98H58.7202V391.32Z" stroke="#333333" stroke-width="2" stroke-linecap="round" stroke-linejoin="round"/>
<path d="M11.3901 318.64C11.3901 316.01 9.26013 313.88 6.63013 313.88C4.00013 313.88 1.87012 316.01 1.87012 318.64C1.87012 321.27 4.00013 323.4 6.63013 323.4C9.26013 323.4 11.3901 321.27 11.3901 318.64Z" stroke="#333333" stroke-width="2" stroke-linecap="round" stroke-linejoin="round"/>
<path d="M39.9502 318.64C39.9502 316.01 37.8202 313.88 35.1902 313.88C32.5602 313.88 30.4302 316.01 30.4302 318.64C30.4302 321.27 32.5602 323.4 35.1902 323.4C37.8202 323.4 39.9502 321.27 39.9502 318.64Z" stroke="#333333" stroke-width="2" stroke-linecap="round" stroke-linejoin="round"/>
<path d="M68.5103 318.64C68.5103 316.01 66.3802 313.88 63.7502 313.88C61.1202 313.88 58.9902 316.01 58.9902 318.64C58.9902 321.27 61.1202 323.4 63.7502 323.4C66.3802 323.4 68.5103 321.27 68.5103 318.64Z" stroke="#333333" stroke-width="2" stroke-linecap="round" stroke-linejoin="round"/>
<path d="M97.07 318.64C97.07 316.01 94.93 313.88 92.3 313.88C89.67 313.88 87.54 316.01 87.54 318.64C87.54 321.27 89.67 323.4 92.3 323.4C94.93 323.4 97.07 321.27 97.07 318.64Z" stroke="#333333" stroke-width="2" stroke-linecap="round" stroke-linejoin="round"/>
<path d="M125.62 318.64C125.62 316.01 123.49 313.88 120.86 313.88C118.23 313.88 116.1 316.01 116.1 318.64C116.1 321.27 118.23 323.4 120.86 323.4C123.49 323.4 125.62 321.27 125.62 318.64Z" stroke="#333333" stroke-width="2" stroke-linecap="round" stroke-linejoin="round"/>
<path d="M7.92999 290H0.77002V296.57H7.92999V290Z" stroke="#333333" stroke-width="2" stroke-linecap="round" stroke-linejoin="round"/>
<path d="M32.4701 290H25.3101V296.57H32.4701V290Z" stroke="#333333" stroke-width="2" stroke-linecap="round" stroke-linejoin="round"/>
<path d="M57.0198 290H49.8599V296.57H57.0198V290Z" stroke="#333333" stroke-width="2" stroke-linecap="round" stroke-linejoin="round"/>
<path d="M81.5701 290H74.4102V296.57H81.5701V290Z" stroke="#333333" stroke-width="2" stroke-linecap="round" stroke-linejoin="round"/>
<path d="M106.12 290H98.96V296.57H106.12V290Z" stroke="#333333" stroke-width="2" stroke-linecap="round" stroke-linejoin="round"/>
<path d="M130.67 290H123.51V296.57H130.67V290Z" stroke="#333333" stroke-width="2" stroke-linecap="round" stroke-linejoin="round"/>
<path d="M133.54 463.92H87.1401" stroke="#333333" stroke-width="2" stroke-linecap="round" stroke-linejoin="round"/>
<path d="M104.9 474.25H79.3999" stroke="#333333" stroke-width="2" stroke-linecap="round" stroke-linejoin="round"/>
<path d="M118.4 509.12H61.0303" stroke="#333333" stroke-width="2" stroke-linecap="round" stroke-linejoin="round"/>
<path d="M112.4 518.89H133.54" stroke="#333333" stroke-width="2" stroke-linecap="round" stroke-linejoin="round"/>
<path fill-rule="evenodd" clip-rule="evenodd" d="M172.249 388.391C166.127 413.027 159.105 434.446 151.89 452.875ZM175.291 375.552C187.259 322.474 194.924 255.556 192.277 172.831H209.732C207.076 255.556 214.75 322.474 226.718 375.552H175.291ZM250.119 452.875C242.904 434.446 235.882 413.027 229.76 388.391L250.119 452.875ZM256.535 468.383C280.258 522.737 304 546.05 304 546.05H262.004C262.022 545.554 262.035 545.056 262.041 544.555C262.041 513.734 234.714 488.745 201 488.745C167.286 488.745 139.959 513.734 139.959 544.555C139.965 545.056 139.978 545.554 139.996 546.05H98C98 546.05 121.742 522.737 145.465 468.383H256.535ZM178.885 452.875C178.885 452.875 183.077 437.351 187.534 408.698H214.475C218.933 437.351 223.124 452.875 223.124 452.875H178.885Z" fill="white"/>
<path d="M172.249 388.391C166.127 413.027 159.105 434.446 151.89 452.875M175.291 375.552C187.259 322.474 194.924 255.556 192.277 172.831H209.732C207.076 255.556 214.75 322.474 226.718 375.552H175.291ZM250.119 452.875C242.904 434.446 235.882 413.027 229.76 388.391L250.119 452.875ZM256.535 468.383C280.258 522.737 304 546.05 304 546.05H262.004C262.022 545.554 262.035 545.056 262.041 544.555C262.041 513.734 234.714 488.745 201 488.745C167.286 488.745 139.959 513.734 139.959 544.555C139.965 545.056 139.978 545.554 139.996 546.05H98C98 546.05 121.742 522.737 145.465 468.383H256.535ZM178.885 452.875C178.885 452.875 183.077 437.351 187.534 408.698H214.475C218.933 437.351 223.124 452.875 223.124 452.875H178.885Z" stroke="#333333" stroke-width="2" stroke-linecap="round" stroke-linejoin="round"/>
<path d="M197.406 257.591C196.916 266.051 196.318 274.3 195.614 282.337M198.84 195.62C199.005 212.804 198.721 229.252 198.04 245.003" stroke="#333333" stroke-width="2" stroke-linecap="round" stroke-linejoin="round"/>
<path d="M235.174 388.391H166.836C165.742 388.391 164.859 387.639 164.859 386.707V377.235C164.859 376.303 165.742 375.552 166.836 375.552H235.174C236.259 375.552 237.151 376.303 237.151 377.235V386.707C237.151 387.639 236.259 388.391 235.174 388.391Z" stroke="#333333" stroke-width="2" stroke-linecap="round" stroke-linejoin="round"/>
<path d="M262.675 464.108H139.334V456.624C139.334 454.558 141.301 452.875 143.737 452.875H259.247C261.14 452.875 262.675 454.182 262.675 455.795V464.108Z" fill="white" stroke="#333333" stroke-width="2" stroke-linecap="round" stroke-linejoin="round"/>
<path d="M262.574 464.108H139.426L145.694 468.547H256.314L262.574 464.108Z" fill="white" stroke="#333333" stroke-width="2" stroke-linecap="round" stroke-linejoin="round"/>
<path d="M213.316 161.033H188.692V150.59H213.316V161.033Z" stroke="#333333" stroke-width="2" stroke-linecap="round" stroke-linejoin="round"/>
<path d="M210.173 150.59H191.836V147.06H210.173V150.59Z" stroke="#333333" stroke-width="2" stroke-linecap="round" stroke-linejoin="round"/>
<path d="M207.085 147.059H194.925V143.356H207.085V147.059Z" stroke="#333333" stroke-width="2" stroke-linecap="round" stroke-linejoin="round"/>
<path d="M207.82 172.831H193.996C188.389 172.831 183.839 168.956 183.839 164.173V161.033H218.17V164.008C218.17 168.886 213.537 172.831 207.82 172.831Z" stroke="#333333" stroke-width="2" stroke-linecap="round" stroke-linejoin="round"/>
<path d="M203.004 139.505H199.015C197.921 139.505 197.039 140.256 197.039 141.188V143.357H204.971V141.172C204.971 140.249 204.088 139.505 203.004 139.505Z" stroke="#333333" stroke-width="2" stroke-linecap="round" stroke-linejoin="round"/>
<path d="M202.011 112.637H199.998L199.005 139.505H203.004L202.011 112.637Z" stroke="#333333" stroke-width="2" stroke-linecap="round" stroke-linejoin="round"/>
<path d="M204.143 109.96C204.143 111.44 202.737 112.637 201 112.637C199.272 112.637 197.866 111.44 197.866 109.96C197.866 108.488 199.272 107.291 201 107.291C202.737 107.291 204.143 108.488 204.143 109.96Z" stroke="#333333" stroke-width="2" stroke-linecap="round" stroke-linejoin="round"/>
<path d="M201 109.185V99" stroke="#333333" stroke-width="2" stroke-linecap="round" stroke-linejoin="round"/>
<path d="M150.447 473.354H188.527" stroke="#333333" stroke-width="2" stroke-linecap="round" stroke-linejoin="round"/>
<path d="M197.066 473.354H208.555" stroke="#333333" stroke-width="2" stroke-linecap="round" stroke-linejoin="round"/>
<path d="M171.072 393.025H197.066" stroke="#333333" stroke-width="2" stroke-linecap="round" stroke-linejoin="round"/>
<path d="M202.811 393.025H213.418" stroke="#333333" stroke-width="2" stroke-linecap="round" stroke-linejoin="round"/>
<path d="M229.76 487.234C221.001 483.829 211.267 481.926 201 481.926C171.67 481.926 146.596 497.458 136.503 519.402" stroke="#333333" stroke-width="2" stroke-linecap="round" stroke-linejoin="round"/>
<path d="M263.805 516.028C259.081 507.393 251.985 499.901 243.226 494.155" stroke="#333333" stroke-width="2" stroke-linecap="round" stroke-linejoin="round"/>
<path d="M155.19 444.193H166.404" stroke="#333333" stroke-width="2" stroke-linecap="round" stroke-linejoin="round"/>
<path d="M157.782 436.998H173.747" stroke="#333333" stroke-width="2" stroke-linecap="round" stroke-linejoin="round"/>
<path d="M225.284 369.007H197.066" stroke="#333333" stroke-width="2" stroke-linecap="round" stroke-linejoin="round"/>
<path d="M223.997 362.877H208.114" stroke="#333333" stroke-width="2" stroke-linecap="round" stroke-linejoin="round"/>
<path d="M165.76 385.126H204.484" stroke="#333333" stroke-width="2" stroke-linecap="round" stroke-linejoin="round"/>
<path d="M210.118 385.126H217.287" stroke="#333333" stroke-width="2" stroke-linecap="round" stroke-linejoin="round"/>
<path d="M186.156 313.557H195.614" stroke="#333333" stroke-width="2" stroke-linecap="round" stroke-linejoin="round"/>
<path d="M186.946 307.263H190.889" stroke="#333333" stroke-width="2" stroke-linecap="round" stroke-linejoin="round"/>
<path d="M183.839 164.541H198.04" stroke="#333333" stroke-width="2" stroke-linecap="round" stroke-linejoin="round"/>
<path d="M203.004 164.541H207.085" stroke="#333333" stroke-width="2" stroke-linecap="round" stroke-linejoin="round"/>
</svg>
