<svg width="528" height="525" viewBox="0 0 528 525" fill="none" xmlns="http://www.w3.org/2000/svg">
<path fill-rule="evenodd" clip-rule="evenodd" d="M520.109 547.896V524.58H507.331V547.896H520.109ZM518.452 546.238H508.975V526.237H518.452V546.238Z" fill="#424242"/>
<path fill-rule="evenodd" clip-rule="evenodd" d="M476.753 547.896H489.543V524.58H476.753V547.896ZM478.41 526.25H487.886V546.238H478.41V526.25Z" fill="#424242"/>
<path fill-rule="evenodd" clip-rule="evenodd" d="M445.307 547.896H458.098V524.58H445.307V547.896ZM446.964 526.25H456.441V546.238H446.964V526.25Z" fill="#424242"/>
<path fill-rule="evenodd" clip-rule="evenodd" d="M404.915 606.01V590.734H418.807L435.118 557.139V515.971H418.496V499.245H435.118V486.079H449.864V397.541L443.857 391.534V363.765C442.07 365.474 439.183 366.626 437.034 366.626C432.723 366.626 428.128 364.206 428.128 357.422V346.25L424.801 340.851L423.014 342.068C422.565 342.379 422.069 342.534 421.525 342.534C421.361 342.534 421.193 342.517 421.02 342.482C420.321 342.353 419.713 341.964 419.311 341.382L408.722 325.911C407.893 324.707 408.204 323.037 409.421 322.209L412.126 320.358L407.077 312.189L429.824 296.951L433.85 303.722L443.857 295.385V292.576C443.857 281.649 452.466 269.868 466.383 269.713V244.805V244.676L464.182 242.475L450.071 239.614L465.049 236.325C465.162 235.972 465.287 235.609 465.425 235.238L452.142 221.813L469.762 227.535C469.865 227.423 469.965 227.311 470.06 227.199L464.078 207.288L477.97 222.176C478.116 222.141 478.259 222.106 478.397 222.072L482.721 201.941L487.045 222.033C487.191 222.076 487.338 222.124 487.485 222.176L501.363 207.288L495.382 227.199C495.485 227.311 495.589 227.423 495.692 227.535L511.784 222.305V176.981C511.784 174.975 512.574 173.071 513.998 171.647C514.585 171.086 515.245 170.625 515.979 170.262V164.825C510.425 164.644 507.758 162.469 507.758 152.332V151.504H517.26V148.008C513.17 144.047 512.38 137.651 514.891 128.408L515.552 126L516.458 128.33C516.484 128.382 518.71 134.001 522.62 134.208C526.025 134.389 528.899 136.771 529.766 140.124C530.582 143.257 529.469 146.26 526.892 148.099V151.504H536.395V152.332C536.395 163.258 531.825 164.708 526.905 164.825C526.931 167.09 526.931 168.527 526.905 169.434H527.954C529.585 169.434 530.931 170.767 530.931 172.411V183.312C530.931 184.956 529.585 186.289 527.954 186.289H526.892V197.98V234.422C530.478 237.154 532.42 241.297 532.42 243.912V264.612C532.42 267.901 529.067 271.914 524.769 273.597V295.773C524.769 298.647 520.678 304.123 515.552 304.667V318.26L521.313 324.008L521.559 324.254V481.159L514.542 474.156V486.079H530.297V499.245H546.92V515.971H530.297V557.139L546.609 590.734H560.5V606.01H669V639.488H296.428V606.01H404.915ZM482.708 558.162H436.465L432.943 565.412H532.472L528.951 558.162H482.708ZM432.141 567.069L424.684 582.41H540.732L533.275 567.069H432.141ZM423.894 584.067L420.658 590.734H544.771L541.534 584.067H423.894ZM508.716 592.391V606.01H532.537V592.391H508.716ZM507.059 592.391H483.549V606.01H507.059V592.391ZM481.892 592.391H458.369V606.023H481.892V592.391ZM456.712 592.391H432.892V606.01H456.712V592.391ZM431.248 592.391H419.337H406.573V606.023H431.248V592.391ZM451.521 486.079H462.68V410.358L451.521 399.211V486.079ZM489.945 449.558V486.079H501.104V460.705L489.945 449.558ZM519.901 347.039L503.059 330.209V409.659L519.901 426.501V347.039ZM501.402 328.552L475.096 302.233V381.696L489.388 396.001V357.422H491.045V397.658L501.402 408.015V328.552ZM457.58 402.94L473.438 418.786V300.576L459.975 287.125C459.664 287.177 459.172 287.332 458.758 287.747C458.205 288.299 457.925 289.166 457.916 290.349V402.94H457.58ZM475.096 384.039V420.443L475.432 420.792L469.477 426.747L494.696 451.966V403.639L475.096 384.039ZM488.287 447.901L477.141 436.755V486.079H488.287V447.901ZM475.484 435.098L467.134 426.747L473.102 420.792L464.324 412.015V486.079H475.484V435.098ZM429.785 357.435C429.785 364.244 434.859 364.982 437.034 364.982C439.792 364.982 443.857 362.626 443.857 360.516V349.266L434.225 356.114L429.785 348.942V357.435ZM429.293 299.307L409.33 312.681L413.499 319.438L414.845 318.506C415.428 318.105 416.14 317.963 416.839 318.092C417.538 318.222 418.146 318.623 418.548 319.205L429.137 334.663C429.966 335.88 429.655 337.537 428.451 338.365L426.16 339.932L434.704 353.745L443.857 347.233V323.775L429.293 299.307ZM410.094 324.992L420.684 340.45C420.848 340.683 421.063 340.825 421.331 340.877C421.607 340.929 421.857 340.877 422.082 340.722L427.519 337.006C427.972 336.695 428.089 336.061 427.778 335.595L417.188 320.138C417.024 319.913 416.809 319.775 416.541 319.723C416.472 319.706 416.407 319.697 416.347 319.697C416.14 319.697 415.95 319.758 415.777 319.879L410.353 323.594C409.9 323.905 409.783 324.539 410.094 324.992ZM434.717 305.185L443.857 320.539V297.56L434.717 305.185ZM514.736 303.088C519.41 303.088 523.125 297.845 523.125 295.799V274.141C522.34 274.33 521.541 274.425 520.73 274.425V272.768C526.077 272.768 530.776 267.706 530.776 264.638V243.925C530.776 241.944 529.352 238.889 526.905 236.597V244.663C526.905 248.831 523.513 252.223 519.345 252.223C515.189 252.223 511.797 248.831 511.797 244.663V235.484C508.638 237.892 507.24 241.53 507.24 243.07V258.838H506.412C504.366 258.838 500.612 260.793 500.612 263.991C500.612 265.777 499.848 267.525 498.45 268.897C496.845 270.477 494.67 271.37 492.456 271.37C492.404 271.37 492.357 271.37 492.314 271.37C489.207 271.331 474.112 271.357 468.648 271.357L513.907 316.616V303.088H514.736ZM470.318 229.399L472.377 231.535C472.834 231.173 473.313 230.836 473.814 230.526C474.004 230.396 474.198 230.275 474.396 230.163C474.957 229.852 475.536 229.572 476.131 229.322L474.565 225.451C472.856 226.525 471.458 227.885 470.318 229.399ZM473.62 251.77C473.62 253.557 474.125 255.265 475.096 256.728L475.212 256.909C476.921 259.395 479.704 260.871 482.721 260.871C485.711 260.871 488.482 259.408 490.19 256.948L490.333 256.728C491.304 255.265 491.822 253.557 491.822 251.77V244.119C490.126 243.731 488.598 243.187 487.342 242.449C486.643 242.052 485.992 241.577 485.388 241.025C484.861 240.559 484.408 240.058 484.028 239.523C483.485 238.781 483.049 237.965 482.721 237.076C482.419 237.888 482.026 238.638 481.543 239.329C481.154 239.899 480.688 240.442 480.209 240.869C479.648 241.413 478.966 241.927 478.164 242.41C476.895 243.161 475.354 243.705 473.62 244.119V251.77ZM498.748 241.944C498.791 242.142 498.83 242.337 498.864 242.527L499.939 241.452C499.835 240.792 499.576 239.355 499.046 237.581L497.492 238.267C497.984 239.338 498.359 240.39 498.618 241.426C498.661 241.599 498.705 241.771 498.748 241.944ZM497.272 243.07C497.246 242.932 497.22 242.785 497.194 242.63C497.099 242.13 496.97 241.607 496.806 241.064C496.789 241.003 496.771 240.943 496.754 240.882C496.668 240.615 496.569 240.343 496.456 240.067C496.413 239.937 496.366 239.808 496.314 239.678C496.21 239.437 496.102 239.199 495.99 238.966C495.913 238.785 495.831 238.604 495.744 238.423C495.684 238.31 495.619 238.198 495.55 238.086C495.179 237.378 494.76 236.697 494.294 236.041C494.268 236.006 494.238 235.967 494.204 235.924C493.712 235.242 493.181 234.608 492.611 234.021C492.542 233.952 492.473 233.887 492.404 233.827C491.127 232.575 489.737 231.604 488.236 230.914C488.149 230.871 488.063 230.828 487.977 230.785C487.347 230.517 486.691 230.297 486.009 230.124C485.871 230.09 485.728 230.06 485.582 230.034C485.012 229.904 484.43 229.818 483.834 229.775C483.739 229.758 483.644 229.745 483.549 229.736V232.48C483.549 234.897 484.153 236.917 485.362 238.539C485.681 238.979 486.056 239.394 486.488 239.782C487.014 240.257 487.575 240.667 488.171 241.012C489.457 241.763 491.006 242.315 492.819 242.669C494.13 242.954 495.619 243.118 497.285 243.161C497.285 243.135 497.281 243.105 497.272 243.07ZM472.623 242.669C474.478 242.298 476.041 241.737 477.309 240.986C478 240.58 478.591 240.136 479.083 239.653C479.489 239.29 479.86 238.863 480.196 238.371C481.327 236.8 481.892 234.837 481.892 232.48V229.736C481.806 229.736 481.724 229.74 481.646 229.749C481.016 229.792 480.395 229.865 479.782 229.969C479.713 229.986 479.64 229.999 479.562 230.008C478.863 230.146 478.181 230.327 477.516 230.552C477.491 230.56 477.469 230.569 477.452 230.577C475.717 231.19 474.181 232.075 472.843 233.231C472.817 233.257 472.791 233.283 472.765 233.309C472.455 233.577 472.161 233.861 471.885 234.163C471.781 234.276 471.678 234.388 471.574 234.5C471.393 234.707 471.216 234.923 471.043 235.147C470.897 235.346 470.75 235.549 470.603 235.756C470.508 235.894 470.413 236.036 470.318 236.183C470.146 236.459 469.982 236.74 469.826 237.025C469.775 237.119 469.727 237.214 469.684 237.309C469.537 237.594 469.404 237.883 469.283 238.177C469.007 238.824 468.778 239.497 468.597 240.196C468.553 240.36 468.515 240.524 468.48 240.688C468.308 241.439 468.187 242.212 468.118 243.006C468.118 243.057 468.118 243.109 468.118 243.161C469.766 243.126 471.268 242.962 472.623 242.669ZM468.221 236.533C468.972 235.065 469.939 233.753 471.121 232.597L469.36 230.772C468.273 232.493 467.457 234.28 466.875 235.924L468.221 236.533ZM477.698 228.778C478.224 228.614 478.768 228.48 479.329 228.377C479.458 228.351 479.592 228.329 479.73 228.312C480.429 228.191 481.146 228.113 481.879 228.079V223.25C479.644 223.362 477.689 223.82 476.015 224.622L477.698 228.778ZM483.549 228.053V228.092C484.335 228.135 485.09 228.239 485.815 228.403C485.962 228.428 486.113 228.459 486.268 228.493C486.82 228.631 487.351 228.795 487.86 228.985L489.569 224.739C487.748 223.833 485.737 223.328 483.536 223.224L483.549 228.053ZM491.032 225.58L489.388 229.645C489.44 229.671 489.491 229.697 489.543 229.723C489.699 229.792 489.854 229.865 490.009 229.943C491.131 230.582 492.189 231.363 493.181 232.286L495.524 230.034C494.23 228.178 492.732 226.694 491.032 225.58ZM496.418 231.484L494.32 233.477C494.631 233.823 494.92 234.172 495.188 234.526C495.421 234.819 495.649 235.121 495.874 235.432C496.176 235.89 496.461 236.347 496.728 236.804L498.515 236.015C497.937 234.375 497.237 232.865 496.418 231.484ZM501.518 240.766L506.425 239.769C506.477 239.64 506.533 239.514 506.593 239.394L500.949 238.164C501.233 239.251 501.415 240.145 501.518 240.766ZM497.388 244.792C495.99 244.766 494.687 244.65 493.479 244.443V251.77C493.479 253.802 492.922 255.744 491.861 257.427V269.7C492.042 269.709 492.206 269.713 492.352 269.713C494.178 269.674 496.003 269.001 497.298 267.719C497.332 267.685 497.363 267.65 497.388 267.616V244.792ZM490.203 259.46C488.21 261.402 485.556 262.528 482.734 262.528C479.898 262.528 477.232 261.402 475.251 259.473V269.687C480.429 269.687 486.695 269.674 490.203 269.687V259.46ZM473.594 257.427V257.414C472.532 255.731 471.976 253.79 471.976 251.77V244.443C470.767 244.641 469.464 244.758 468.066 244.792V269.7C469.296 269.7 471.276 269.7 473.594 269.7V257.427ZM466.512 242.462C466.521 242.393 466.53 242.324 466.538 242.255C466.573 241.97 466.616 241.685 466.668 241.4C466.702 241.159 466.741 240.917 466.784 240.675C466.974 239.76 467.233 238.88 467.561 238.034L466.383 237.504C465.852 239.303 465.593 240.766 465.503 241.439L466.512 242.462ZM458.097 239.562L463.936 240.753C464.04 240.144 464.234 239.225 464.519 238.151L458.097 239.562ZM458.123 225.503L466.111 233.581C466.784 232.04 467.639 230.448 468.713 228.933L458.123 225.503ZM467.729 213.618L471.406 225.865C472.778 224.596 474.396 223.548 476.287 222.784L467.729 213.618ZM482.747 209.838L480.183 221.722C480.736 221.653 481.305 221.61 481.892 221.593V221.541H482.669C482.686 221.533 482.703 221.528 482.721 221.528V221.541C483.601 221.541 484.46 221.602 485.297 221.722L482.747 209.838ZM489.232 222.758C489.793 222.982 490.337 223.237 490.864 223.522C492.02 224.161 493.095 224.942 494.087 225.865L497.764 213.618L489.232 222.758ZM496.767 228.946C496.957 229.188 497.138 229.438 497.311 229.697C498.087 230.888 498.748 232.222 499.356 233.607L507.37 225.516L496.767 228.946ZM500.004 235.29C500.12 235.588 500.262 235.872 500.353 236.183C500.37 236.235 500.388 236.291 500.405 236.351L507.422 237.879C508.444 236.261 509.894 234.681 511.81 233.49V223.367L500.004 235.29ZM513.454 176.994V244.663C513.454 247.912 516.108 250.553 519.358 250.553C522.607 250.553 525.248 247.912 525.248 244.663V201.591C524.407 202.329 523.306 202.795 522.102 202.795C519.435 202.795 517.273 200.646 517.273 197.992V181.862C517.273 181.845 517.278 181.832 517.286 181.823V172.424C517.295 172.079 517.36 171.751 517.481 171.44C517.368 171.466 517.252 171.501 517.131 171.544C516.389 171.846 515.742 172.273 515.189 172.826C514.076 173.952 513.454 175.428 513.454 176.994ZM528.187 140.564C527.643 138.506 525.857 136.059 522.542 135.878C519.345 135.709 517.157 132.991 515.966 131.01C513.558 141.768 516.937 145.484 518.426 146.869H525.805C528.316 145.186 528.692 142.519 528.187 140.564ZM525.248 148.526H518.93V151.517H525.248V148.526ZM534.75 153.161H509.441C509.584 162.702 512.367 163.194 516.833 163.194H526.077C530.854 163.194 534.543 162.443 534.75 153.161ZM525.261 164.851H517.649V169.654C518.408 169.49 519.177 169.438 519.953 169.498C520.057 169.498 520.147 169.447 520.264 169.447H525.287C525.287 168.398 525.274 166.443 525.261 164.851ZM529.287 183.325V172.424C529.287 171.686 528.692 171.091 527.967 171.091H526.245C526.219 171.099 526.198 171.104 526.18 171.104L526.154 171.091H521.662L521.507 171.505C521.006 171.315 520.493 171.199 519.966 171.155C519.384 171.298 518.93 171.79 518.93 172.424V180.981L519.047 181.02C518.978 181.271 518.939 181.534 518.93 181.81V183.325C518.93 184.063 519.526 184.645 520.264 184.645H527.967C528.692 184.645 529.287 184.063 529.287 183.325ZM520.264 186.302C519.781 186.294 519.336 186.177 518.93 185.953V197.98C518.93 199.727 520.355 201.138 522.102 201.138C523.837 201.138 525.248 199.727 525.248 197.98V186.302H520.264ZM505.816 241.569L501.246 242.501L499.046 244.689V263.434C499.395 259.952 502.8 257.634 505.596 257.233V243.057C505.605 242.626 505.678 242.13 505.816 241.569ZM466.344 271.37C453.476 271.551 445.54 282.465 445.54 292.589V390.861L456.298 401.619V290.349C456.298 288.692 456.747 287.423 457.644 286.543C458.784 285.429 460.169 285.455 460.337 285.442H460.674L519.927 344.696V324.953L466.344 271.37ZM519.927 428.845L496.366 405.296V453.623L507.525 464.783V436.884H509.182V466.427L519.927 477.172V428.845ZM512.911 472.511L502.774 462.375V486.092H512.911V472.511ZM528.666 487.736H436.801V499.245H528.666V487.736ZM545.289 500.902H530.323H529.494H435.973H435.144H420.179V514.314H545.289V500.902ZM436.801 515.984V556.518H482.734H528.666V515.984H436.801ZM558.882 592.391H546.13H534.22V606.023H558.882V592.391ZM298.111 637.831H667.369V607.68H560.539H559.71H482.747H405.77H404.941H298.111V637.831Z" fill="#424242"/>
<path d="M222.15 92H149.461" stroke="#333333" stroke-width="2" stroke-linecap="round" stroke-linejoin="round"/>
<path d="M139.503 92H119" stroke="#333333" stroke-width="2" stroke-linecap="round" stroke-linejoin="round"/>
<path fill-rule="evenodd" clip-rule="evenodd" d="M305.975 349.604V356.357H312.712V349.604H305.975ZM307.335 350.964H311.384V355.013H307.335V350.964Z" fill="#424242"/>
<path fill-rule="evenodd" clip-rule="evenodd" d="M312.712 359.204H305.975V365.958H312.712V359.204ZM311.368 364.598H307.319V360.549H311.368V364.598Z" fill="#424242"/>
<path fill-rule="evenodd" clip-rule="evenodd" d="M312.712 368.804H305.975V375.558H312.712V368.804ZM311.368 374.197H307.319V370.149H311.368V374.197Z" fill="#424242"/>
<path fill-rule="evenodd" clip-rule="evenodd" d="M312.712 378.405H305.975V385.158H312.712V378.405ZM311.368 383.798H307.319V379.749H311.368V383.798Z" fill="#424242"/>
<path fill-rule="evenodd" clip-rule="evenodd" d="M312.712 388.005H305.975V394.742H312.712V388.005ZM311.368 393.414H307.319V389.365H311.368V393.414Z" fill="#424242"/>
<path fill-rule="evenodd" clip-rule="evenodd" d="M312.712 397.605H305.975V404.343H312.712V397.605ZM311.368 403.014H307.319V398.95H311.368V403.014Z" fill="#424242"/>
<path fill-rule="evenodd" clip-rule="evenodd" d="M312.712 407.206H305.975V413.943H312.712V407.206ZM311.368 412.615H307.319V408.55H311.368V412.615Z" fill="#424242"/>
<path fill-rule="evenodd" clip-rule="evenodd" d="M312.712 416.79H305.975V423.543H312.712V416.79ZM311.368 422.183H307.319V418.134H311.368V422.183Z" fill="#424242"/>
<path fill-rule="evenodd" clip-rule="evenodd" d="M312.712 426.39H305.975V433.144H312.712V426.39ZM311.368 431.784H307.319V427.735H311.368V431.784Z" fill="#424242"/>
<path fill-rule="evenodd" clip-rule="evenodd" d="M312.712 435.99H305.975V442.744H312.712V435.99ZM311.368 441.384H307.319V437.335H311.368V441.384Z" fill="#424242"/>
<path fill-rule="evenodd" clip-rule="evenodd" d="M312.712 445.591H305.975V452.344H312.712V445.591ZM311.368 450.984H307.319V446.935H311.368V450.984Z" fill="#424242"/>
<path fill-rule="evenodd" clip-rule="evenodd" d="M312.712 455.191H305.975V461.945H312.712V455.191ZM311.368 460.584H307.319V456.535H311.368V460.584Z" fill="#424242"/>
<path fill-rule="evenodd" clip-rule="evenodd" d="M312.712 474.391H305.975V481.129H312.712V474.391ZM311.368 479.8H307.319V475.736H311.368V479.8Z" fill="#424242"/>
<path fill-rule="evenodd" clip-rule="evenodd" d="M312.712 483.992H305.975V490.729H312.712V483.992ZM311.368 489.401H307.319V485.336H311.368V489.401Z" fill="#424242"/>
<path fill-rule="evenodd" clip-rule="evenodd" d="M312.712 493.576H305.975V500.33H312.712V493.576ZM311.368 498.97H307.319V494.921H311.368V498.97Z" fill="#424242"/>
<path fill-rule="evenodd" clip-rule="evenodd" d="M312.712 503.177H305.975V509.93H312.712V503.177ZM311.368 508.57H307.319V504.521H311.368V508.57Z" fill="#424242"/>
<path fill-rule="evenodd" clip-rule="evenodd" d="M312.712 512.777H305.975V519.53H312.712V512.777ZM311.368 518.17H307.319V514.121H311.368V518.17Z" fill="#424242"/>
<path fill-rule="evenodd" clip-rule="evenodd" d="M312.712 522.377H305.975V529.131H312.712V522.377ZM311.368 527.77H307.319V523.722H311.368V527.77Z" fill="#424242"/>
<path fill-rule="evenodd" clip-rule="evenodd" d="M299 345.602V556.492H387V345.602H367.546V338.406H356.459L350.513 297L349.168 297.095V338.406H337.354V297.095L336.009 297L330.063 338.406H318.47V345.602H299ZM335.994 338.406H331.423L335.994 306.521V338.406ZM355.083 338.406H350.513V306.521L355.083 338.406ZM367.531 555.385V346.947H385.64V555.385H367.531ZM319.814 555.385V339.75H366.186V555.385H319.814ZM300.344 555.385V346.947H318.47V555.385H300.344Z" fill="#424242"/>
<path fill-rule="evenodd" clip-rule="evenodd" d="M373.288 349.604V356.357H380.041V349.604H373.288ZM374.632 350.964H378.681V355.013H374.632V350.964Z" fill="#424242"/>
<path fill-rule="evenodd" clip-rule="evenodd" d="M380.041 359.204H373.288V365.958H380.041V359.204ZM378.697 364.598H374.648V360.549H378.697V364.598Z" fill="#424242"/>
<path fill-rule="evenodd" clip-rule="evenodd" d="M380.041 368.804H373.288V375.558H380.041V368.804ZM378.697 374.197H374.648V370.149H378.697V374.197Z" fill="#424242"/>
<path fill-rule="evenodd" clip-rule="evenodd" d="M380.041 378.405H373.288V385.158H380.041V378.405ZM378.697 383.798H374.648V379.749H378.697V383.798Z" fill="#424242"/>
<path fill-rule="evenodd" clip-rule="evenodd" d="M380.041 388.005H373.288V394.742H380.041V388.005ZM378.697 393.414H374.648V389.365H378.697V393.414Z" fill="#424242"/>
<path fill-rule="evenodd" clip-rule="evenodd" d="M380.041 397.605H373.288V404.343H380.041V397.605ZM378.697 403.014H374.648V398.95H378.697V403.014Z" fill="#424242"/>
<path fill-rule="evenodd" clip-rule="evenodd" d="M380.041 407.206H373.288V413.943H380.041V407.206ZM378.697 412.615H374.648V408.55H378.697V412.615Z" fill="#424242"/>
<path fill-rule="evenodd" clip-rule="evenodd" d="M380.041 416.79H373.288V423.543H380.041V416.79ZM378.697 422.183H374.648V418.134H378.697V422.183Z" fill="#424242"/>
<path fill-rule="evenodd" clip-rule="evenodd" d="M380.041 426.39H373.288V433.144H380.041V426.39ZM378.697 431.784H374.648V427.735H378.697V431.784Z" fill="#424242"/>
<path fill-rule="evenodd" clip-rule="evenodd" d="M380.041 435.99H373.288V442.744H380.041V435.99ZM378.697 441.384H374.648V437.335H378.697V441.384Z" fill="#424242"/>
<path fill-rule="evenodd" clip-rule="evenodd" d="M380.041 445.591H373.288V452.344H380.041V445.591ZM378.697 450.984H374.648V446.935H378.697V450.984Z" fill="#424242"/>
<path fill-rule="evenodd" clip-rule="evenodd" d="M380.041 455.191H373.288V461.945H380.041V455.191ZM378.697 460.584H374.648V456.535H378.697V460.584Z" fill="#424242"/>
<path fill-rule="evenodd" clip-rule="evenodd" d="M380.041 464.792H373.288V471.529H380.041V464.792ZM378.697 470.201H374.648V466.152H378.697V470.201Z" fill="#424242"/>
<path fill-rule="evenodd" clip-rule="evenodd" d="M380.041 474.391H373.288V481.129H380.041V474.391ZM378.697 479.8H374.648V475.736H378.697V479.8Z" fill="#424242"/>
<path fill-rule="evenodd" clip-rule="evenodd" d="M380.041 483.992H373.288V490.729H380.041V483.992ZM378.697 489.401H374.648V485.336H378.697V489.401Z" fill="#424242"/>
<path fill-rule="evenodd" clip-rule="evenodd" d="M380.041 493.576H373.288V500.33H380.041V493.576ZM378.697 498.97H374.648V494.921H378.697V498.97Z" fill="#424242"/>
<path fill-rule="evenodd" clip-rule="evenodd" d="M380.041 503.177H373.288V509.93H380.041V503.177ZM378.697 508.57H374.648V504.521H378.697V508.57Z" fill="#424242"/>
<path fill-rule="evenodd" clip-rule="evenodd" d="M380.041 512.777H373.288V519.53H380.041V512.777ZM378.697 518.17H374.648V514.121H378.697V518.17Z" fill="#424242"/>
<path fill-rule="evenodd" clip-rule="evenodd" d="M380.041 522.377H373.288V529.131H380.041V522.377ZM378.697 527.77H374.648V523.722H378.697V527.77Z" fill="#424242"/>
<path fill-rule="evenodd" clip-rule="evenodd" d="M360.951 407.206H350.797V413.943H360.951V407.206ZM359.591 412.615H352.141V408.55H359.591V412.615Z" fill="#424242"/>
<path fill-rule="evenodd" clip-rule="evenodd" d="M348.141 407.206H338.003V413.943H348.141V407.206ZM346.796 412.615H339.347V408.55H346.796V412.615Z" fill="#424242"/>
<path fill-rule="evenodd" clip-rule="evenodd" d="M335.345 407.206H325.207V413.943H335.345V407.206ZM334.001 412.615H326.552V408.55H334.001V412.615Z" fill="#424242"/>
<path fill-rule="evenodd" clip-rule="evenodd" d="M360.951 418.403H350.797V425.141H360.951V418.403ZM359.591 423.812H352.141V419.748H359.591V423.812Z" fill="#424242"/>
<path fill-rule="evenodd" clip-rule="evenodd" d="M348.141 418.403H338.003V425.141H348.141V418.403ZM346.796 423.812H339.347V419.748H346.796V423.812Z" fill="#424242"/>
<path fill-rule="evenodd" clip-rule="evenodd" d="M335.345 418.403H325.207V425.141H335.345V418.403ZM334.001 423.812H326.552V419.748H334.001V423.812Z" fill="#424242"/>
<path fill-rule="evenodd" clip-rule="evenodd" d="M360.951 429.601H350.797V436.339H360.951V429.601ZM359.591 434.994H352.141V430.945H359.591V434.994Z" fill="#424242"/>
<path fill-rule="evenodd" clip-rule="evenodd" d="M348.141 429.601H338.003V436.339H348.141V429.601ZM346.796 434.994H339.347V430.945H346.796V434.994Z" fill="#424242"/>
<path fill-rule="evenodd" clip-rule="evenodd" d="M335.345 429.601H325.207V436.339H335.345V429.601ZM334.001 434.994H326.552V430.945H334.001V434.994Z" fill="#424242"/>
<path fill-rule="evenodd" clip-rule="evenodd" d="M360.951 440.798H350.797V447.536H360.951V440.798ZM359.591 446.207H352.141V442.143H359.591V446.207Z" fill="#424242"/>
<path fill-rule="evenodd" clip-rule="evenodd" d="M348.141 440.798H338.003V447.536H348.141V440.798ZM346.796 446.207H339.347V442.143H346.796V446.207Z" fill="#424242"/>
<path fill-rule="evenodd" clip-rule="evenodd" d="M335.345 440.798H325.207V447.536H335.345V440.798ZM334.001 446.207H326.552V442.143H334.001V446.207Z" fill="#424242"/>
<path fill-rule="evenodd" clip-rule="evenodd" d="M360.951 451.996H350.797V458.734H360.951V451.996ZM359.591 457.405H352.141V453.341H359.591V457.405Z" fill="#424242"/>
<path fill-rule="evenodd" clip-rule="evenodd" d="M348.141 451.996H338.003V458.734H348.141V451.996ZM346.796 457.405H339.347V453.341H346.796V457.405Z" fill="#424242"/>
<path fill-rule="evenodd" clip-rule="evenodd" d="M335.345 451.996H325.207V458.734H335.345V451.996ZM334.001 457.405H326.552V453.341H334.001V457.405Z" fill="#424242"/>
<path fill-rule="evenodd" clip-rule="evenodd" d="M360.951 463.194H350.797V469.932H360.951V463.194ZM359.591 468.603H352.141V464.539H359.591V468.603Z" fill="#424242"/>
<path fill-rule="evenodd" clip-rule="evenodd" d="M348.141 463.194H338.003V469.932H348.141V463.194ZM346.796 468.603H339.347V464.539H346.796V468.603Z" fill="#424242"/>
<path fill-rule="evenodd" clip-rule="evenodd" d="M335.345 463.194H325.207V469.932H335.345V463.194ZM334.001 468.603H326.552V464.539H334.001V468.603Z" fill="#424242"/>
<path fill-rule="evenodd" clip-rule="evenodd" d="M360.951 474.391H350.797V481.129H360.951V474.391ZM359.591 479.8H352.141V475.736H359.591V479.8Z" fill="#424242"/>
<path fill-rule="evenodd" clip-rule="evenodd" d="M348.141 474.391H338.003V481.129H348.141V474.391ZM346.796 479.8H339.347V475.736H346.796V479.8Z" fill="#424242"/>
<path fill-rule="evenodd" clip-rule="evenodd" d="M335.345 474.391H325.207V481.129H335.345V474.391ZM334.001 479.8H326.552V475.736H334.001V479.8Z" fill="#424242"/>
<path fill-rule="evenodd" clip-rule="evenodd" d="M360.951 485.589H350.797V492.327H360.951V485.589ZM359.591 490.998H352.141V486.95H359.591V490.998Z" fill="#424242"/>
<path fill-rule="evenodd" clip-rule="evenodd" d="M348.141 485.589H338.003V492.327H348.141V485.589ZM346.796 490.998H339.347V486.95H346.796V490.998Z" fill="#424242"/>
<path fill-rule="evenodd" clip-rule="evenodd" d="M335.345 485.589H325.207V492.327H335.345V485.589ZM334.001 490.998H326.552V486.95H334.001V490.998Z" fill="#424242"/>
<path fill-rule="evenodd" clip-rule="evenodd" d="M360.951 496.787H350.797V503.525H360.951V496.787ZM359.591 502.196H352.141V498.132H359.591V502.196Z" fill="#424242"/>
<path fill-rule="evenodd" clip-rule="evenodd" d="M348.141 496.787H338.003V503.525H348.141V496.787ZM346.796 502.196H339.347V498.132H346.796V502.196Z" fill="#424242"/>
<path fill-rule="evenodd" clip-rule="evenodd" d="M335.345 496.787H325.207V503.525H335.345V496.787ZM334.001 502.196H326.552V498.132H334.001V502.196Z" fill="#424242"/>
<path fill-rule="evenodd" clip-rule="evenodd" d="M360.951 507.985H350.797V514.722H360.951V507.985ZM359.591 513.394H352.141V509.345H359.591V513.394Z" fill="#424242"/>
<path fill-rule="evenodd" clip-rule="evenodd" d="M348.141 507.985H338.003V514.722H348.141V507.985ZM346.796 513.394H339.347V509.345H346.796V513.394Z" fill="#424242"/>
<path fill-rule="evenodd" clip-rule="evenodd" d="M335.345 507.985H325.207V514.722H335.345V507.985ZM334.001 513.394H326.552V509.345H334.001V513.394Z" fill="#424242"/>
<path fill-rule="evenodd" clip-rule="evenodd" d="M360.951 519.182H350.797V525.92H360.951V519.182ZM359.591 524.576H352.141V520.527H359.591V524.576Z" fill="#424242"/>
<path fill-rule="evenodd" clip-rule="evenodd" d="M348.141 519.182H338.003V525.92H348.141V519.182ZM346.796 524.576H339.347V520.527H346.796V524.576Z" fill="#424242"/>
<path fill-rule="evenodd" clip-rule="evenodd" d="M335.345 519.182H325.207V525.92H335.345V519.182ZM334.001 524.576H326.552V520.527H334.001V524.576Z" fill="#424242"/>
<path fill-rule="evenodd" clip-rule="evenodd" d="M344.36 356.357H360.113V345.602H344.36V356.357ZM345.72 346.962H358.768V355.013H345.72V346.962Z" fill="#424242"/>
<path fill-rule="evenodd" clip-rule="evenodd" d="M340.912 345.602H325.175V356.357H340.912V345.602ZM339.568 354.997H326.52V346.947H339.568V354.997Z" fill="#424242"/>
<path fill-rule="evenodd" clip-rule="evenodd" d="M344.36 370.75H360.113V360.011H344.36V370.75ZM345.72 361.355H358.768V369.405H345.72V361.355Z" fill="#424242"/>
<path fill-rule="evenodd" clip-rule="evenodd" d="M340.912 360.011H325.175V370.75H340.912V360.011ZM339.568 369.405H326.52V361.355H339.568V369.405Z" fill="#424242"/>
<path fill-rule="evenodd" clip-rule="evenodd" d="M344.36 385.158H360.113V374.403H344.36V385.158ZM345.72 375.763H358.768V383.814H345.72V375.763Z" fill="#424242"/>
<path fill-rule="evenodd" clip-rule="evenodd" d="M340.912 374.403H325.175V385.158H340.912V374.403ZM339.568 383.798H326.52V375.747H339.568V383.798Z" fill="#424242"/>
<path fill-rule="evenodd" clip-rule="evenodd" d="M344.36 399.551H360.113V388.796H344.36V399.551ZM345.72 390.156H358.768V398.206H345.72V390.156Z" fill="#424242"/>
<path fill-rule="evenodd" clip-rule="evenodd" d="M340.912 388.796H325.175V399.551H340.912V388.796ZM339.568 398.191H326.52V390.14H339.568V398.191Z" fill="#424242"/>
<path fill-rule="evenodd" clip-rule="evenodd" d="M312.712 464.792H305.975V471.529H312.712V464.792ZM311.368 470.201H307.319V466.152H311.368V470.201Z" fill="#424242"/>
<path d="M400.9 59.3H363.21C362.86 59.3 362.57 59.02 362.57 58.67C362.57 58.31 362.86 58.03 363.21 58.03H400.58C401.52 56.72 402.02 55.19 402.02 53.58C402.02 49.36 398.58 45.94 394.36 45.94C393.613 45.94 392.89 46.0433 392.19 46.25C392.003 46.2967 391.83 46.2733 391.67 46.18C391.517 46.08 391.42 45.9367 391.38 45.75C390.34 40.23 385.48 36.22 379.84 36.22C376.38 36.22 373.12 37.72 370.89 40.35C370.72 40.56 370.44 40.63 370.19 40.54C366.72 39.26 362.79 39.86 359.88 42.13C359.71 42.27 359.47 42.31 359.26 42.23C359.05 42.15 358.9 41.97 358.86 41.75C357.18 32.82 349.35 26.35 340.25 26.35C336.63 26.35 333.11 27.38 330.07 29.34C329.89 29.46 329.65 29.47 329.45 29.38C329.26 29.29 329.12 29.1 329.09 28.88C327.16 13.15 313.74 1.28 297.87 1.28C284.05 1.28 271.65 10.52 267.7 23.74C267.64 23.94 267.49 24.1 267.29 24.17C267.1 24.23 266.88 24.2 266.71 24.08C263.47 21.69 259.64 20.43 255.61 20.43C245.25 20.43 236.82 28.86 236.82 39.23C236.82 40.6566 236.977 42.05 237.29 43.41C237.34 43.63 237.27 43.86 237.11 44.02C236.95 44.17 236.71 44.23 236.49 44.17C233.59 43.34 230.55 44.05 228.36 45.92C228.18 46.07 227.93 46.11 227.7 46.02C227.48 45.93 227.33 45.72 227.31 45.48C226.84 39.49 221.76 34.8 215.74 34.8C209.34 34.8 204.13 40.01 204.13 46.41C204.13 47.0167 204.173 47.5467 204.26 48C204.29 48.21 204.23 48.43 204.07 48.58C203.92 48.72 203.71 48.79 203.5 48.75C203.033 48.65 202.563 48.6033 202.09 48.61C197.78 48.61 194.28 52.11 194.28 56.42C194.28 56.9733 194.333 57.51 194.44 58.03H235.63C235.99 58.03 236.27 58.31 236.27 58.67C236.27 59.02 235.99 59.3 235.63 59.3H193.94C193.66 59.3 193.4 59.11 193.33 58.84C193.11 58.0733 193 57.2666 193 56.42C193 51.4 197.08 47.33 202.09 47.33C202.357 47.33 202.623 47.3433 202.89 47.37C202.863 47.07 202.85 46.75 202.85 46.41C202.85 39.3 208.64 33.52 215.74 33.52C222.04 33.52 227.42 38.15 228.45 44.25C230.57 42.82 233.23 42.23 235.84 42.71C235.64 41.5633 235.54 40.4033 235.54 39.23C235.54 28.16 244.54 19.15 255.61 19.15C259.61 19.15 263.44 20.32 266.74 22.54C271.12 9.22001 283.79 0 297.87 0C314.06 0 327.8 11.86 330.23 27.75C333.27 25.99 336.72 25.07 340.25 25.07C349.64 25.07 357.75 31.52 359.91 40.54C362.91 38.56 366.75 38.06 370.21 39.19C372.67 36.48 376.15 34.94 379.84 34.94C385.87 34.94 391.08 39.07 392.49 44.85C393.103 44.7233 393.727 44.66 394.36 44.66C399.28 44.66 403.29 48.66 403.29 53.58C403.29 55.58 402.64 57.48 401.4 59.06C401.267 59.22 401.1 59.3 400.9 59.3Z" fill="#424242"/>
<path d="M264.03 59.3H245.46C245.11 59.3 244.82 59.02 244.82 58.67C244.82 58.31 245.11 58.03 245.46 58.03H264.03C264.39 58.03 264.67 58.31 264.67 58.67C264.67 59.02 264.39 59.3 264.03 59.3Z" fill="#424242"/>
<path d="M326.3 59.3H274.74C274.39 59.3 274.1 59.02 274.1 58.67C274.1 58.31 274.39 58.03 274.74 58.03H326.3C326.65 58.03 326.94 58.31 326.94 58.67C326.94 59.02 326.65 59.3 326.3 59.3Z" fill="#424242"/>
<path d="M422.529 525.18L417.213 520.423L236.227 339.45L50.473 525.18H19.293V544.255H1.6287C1.20291 544.255 0.850098 544.596 0.850098 545.034V618.221C0.850098 618.659 1.20291 619 1.6287 619H452.967C453.393 619 453.746 618.659 453.746 618.221V545.813V545.034V525.18H422.529Z" fill="white"/>
<path fill-rule="evenodd" clip-rule="evenodd" d="M424.269 526.737H48.916L236.228 339.45L417.213 520.423L424.269 526.737ZM52.6752 525.18H420.206L416.155 521.543L236.228 341.652L52.6752 525.18Z" fill="#424242"/>
<path d="M78.2106 526.506L77.1157 525.411L249.087 353.416L250.182 354.511L78.2106 526.506Z" fill="#424242"/>
<path d="M105.522 526.506L104.415 525.411L262.736 367.065L263.843 368.16L105.522 526.506Z" fill="#424242"/>
<path d="M132.821 526.506L131.714 525.411L276.386 380.715L277.493 381.81L132.821 526.506Z" fill="#424242"/>
<path d="M160.12 526.506L159.025 525.411L290.035 394.365L291.142 395.46L160.12 526.506Z" fill="#424242"/>
<path d="M295.352 526.518L294.257 525.411L357.675 461.993L358.782 463.1L295.352 526.518Z" fill="#424242"/>
<path d="M320.997 526.518L319.89 525.411L370.51 474.827L371.605 475.922L320.997 526.518Z" fill="#424242"/>
<path d="M346.653 526.518L345.559 525.411L383.345 487.625L384.439 488.732L346.653 526.518Z" fill="#424242"/>
<path d="M372.286 526.518L371.191 525.411L396.143 500.46L397.25 501.567L372.286 526.518Z" fill="#424242"/>
<path d="M397.931 526.518L396.824 525.411L408.977 513.27L410.072 514.365L397.931 526.518Z" fill="#424242"/>
<path d="M209.233 504.694L208.138 503.599L303.685 408.015L304.792 409.11L209.233 504.694Z" fill="#424242"/>
<path d="M236.531 504.694L235.437 503.599L317.334 421.664L318.441 422.759L236.531 504.694Z" fill="#424242"/>
<path d="M263.831 504.693L262.736 503.598L331.021 435.314L332.115 436.421L263.831 504.693Z" fill="#424242"/>
<path d="M277.493 518.343L276.386 517.248L344.67 448.963L345.765 450.07L277.493 518.343Z" fill="#424242"/>
<path d="M393.734 526.494L221.994 354.778L223.101 353.684L394.841 525.387L393.734 526.494Z" fill="#424242"/>
<path d="M366.423 526.506L208.357 368.44L209.452 367.333L367.53 525.411L366.423 526.506Z" fill="#424242"/>
<path d="M339.123 526.506L194.707 382.09L195.802 380.983L340.23 525.411L339.123 526.506Z" fill="#424242"/>
<path d="M311.824 526.506L181.058 395.74L182.153 394.633L312.931 525.411L311.824 526.506Z" fill="#424242"/>
<path d="M262.736 504.693L167.396 409.365L168.503 408.258L263.831 503.599L262.736 504.693Z" fill="#424242"/>
<path d="M235.437 504.693L153.746 423.015L154.853 421.907L236.532 503.599L235.437 504.693Z" fill="#424242"/>
<path d="M123.624 526.518L86.9331 489.827L88.028 488.72L124.719 525.411L123.624 526.518Z" fill="#424242"/>
<path d="M99.4029 526.518L74.8408 501.944L75.9357 500.837L100.51 525.411L99.4029 526.518Z" fill="#424242"/>
<path d="M75.9844 526.518L63.1255 513.659L64.2204 512.552L77.0793 525.411L75.9844 526.518Z" fill="#424242"/>
<path d="M208.138 504.693L140.097 436.664L141.204 435.557L209.233 503.599L208.138 504.693Z" fill="#424242"/>
<path d="M194.488 518.343L126.447 450.314L127.554 449.207L195.583 517.248L194.488 518.343Z" fill="#424242"/>
<path d="M175.315 526.506L112.797 463.963L113.904 462.856L176.422 525.411L175.315 526.506Z" fill="#424242"/>
<path d="M148.016 526.506L99.1475 477.613L100.254 476.506L149.123 525.411L148.016 526.506Z" fill="#424242"/>
<path d="M202.882 525.959H201.325V510.728H202.882V525.959Z" fill="#424242"/>
<path d="M224.719 525.959H223.174V504.365H224.719V525.959Z" fill="#424242"/>
<path d="M249.294 525.959H247.736V504.365H249.294V525.959Z" fill="#424242"/>
<path d="M271.13 525.958H269.585V511.214H271.13V525.958Z" fill="#424242"/>
<path d="M187.42 526.506L186.325 525.411L208.369 503.367H263.612L285.62 525.411L284.525 526.506L262.968 504.925H209.002L187.42 526.506Z" fill="#424242"/>
</svg>
