<svg version="1.2" xmlns="http://www.w3.org/2000/svg" viewBox="0 0 564 200" width="649" height="230">
	<style>
		.s0 { fill: none;stroke: #333333;stroke-linecap: round;stroke-linejoin: round;stroke-width: 2 } 
	</style>
	<path class="s0" d="m318.75 181.03c0.97 0 1.84 0.44 2.42 1.14 0.9-3.13 3.74-5.42 7.16-5.42 2.55 0 4.81 1.28 6.16 3.25 1.79-5.74 7.15-9.91 13.48-9.91 4.1 0 7.78 1.76 10.37 4.54 3.76-9.04 12.67-15.41 23.08-15.41 13.04 0 23.73 9.98 24.89 22.71 0.57-0.56 1.34-0.9 2.2-0.9 1.77 0 3.2 1.43 3.2 3.19h-96.15c0-1.76 1.43-3.19 3.19-3.19z"/>
	<path class="s0" d="m376.61 163.51q2.33-0.54 4.81-0.55c10.46 0 19.15 7.41 20.92 17.52m-38.11-8.76c1.8-2.48 4.09-4.52 6.72-6.01m37.95 18.91h0.01"/>
	<path class="s0" d="m-3.3 191.09c1.33 0 2.51 0.62 3.31 1.56 1.23-4.28 5.12-7.42 9.78-7.42 3.51 0 6.6 1.77 8.44 4.45 2.46-7.86 9.8-13.56 18.46-13.56 5.61 0 10.66 2.4 14.18 6.22 5.15-12.38 17.35-21.09 31.6-21.09 17.84 0 32.47 13.65 34.05 31.08 0.78-0.76 1.85-1.24 3.04-1.24 2.41 0 4.36 1.96 4.36 4.37h-131.59c0-2.41 1.96-4.37 4.37-4.37z"/>
	<path class="s0" d="m75.87 167.12q3.21-0.75 6.6-0.75c14.3 0 26.2 10.14 28.63 23.97m-52.17-11.99c2.47-3.4 5.61-6.19 9.21-8.23m51.94 25.88h0.01"/>
	<path class="s0" d="m177.04 30.85c1.33 0 2.52 0.6 3.32 1.55 1.22-4.27 5.11-7.42 9.78-7.42 3.51 0 6.59 1.77 8.43 4.46 2.46-7.86 9.8-13.57 18.47-13.57 5.61 0 10.65 2.41 14.18 6.23 5.15-12.38 17.35-21.1 31.6-21.1 17.83 0 32.46 13.66 34.04 31.08 0.79-0.77 1.86-1.23 3.03-1.23 2.42 0 4.37 1.95 4.37 4.36h-131.58c0-2.41 1.95-4.36 4.36-4.36z"/>
	<path class="s0" d="m256.22 6.87q3.2-0.75 6.6-0.75c14.3 0 26.2 10.14 28.63 23.97m-52.17-11.99c2.47-3.4 5.61-6.19 9.2-8.22m51.94 25.88h0.01"/>
	<path class="s0" d="m191.07 515.86h142v-7.16h-142z"/>
	<path class="s0" d="m195.3 515.86h137.77v18.27h-137.77z"/>
	<path class="s0" d="m213.38 490.43h119.69v-7.17h-119.69z"/>
</svg>