<svg width="465" height="502" viewBox="0 0 465 502" fill="none" xmlns="http://www.w3.org/2000/svg">
<g clip-path="url(#clip0_56_3020)">
<rect width="465" height="502" rx="20" fill="#F6F3E6"/>
<path d="M366.846 172.788C367.726 172.788 368.503 173.197 369.034 173.833C369.841 170.974 372.409 168.873 375.489 168.873C377.797 168.873 379.834 170.052 381.052 171.847C382.667 166.6 387.507 162.783 393.22 162.783C396.921 162.783 400.242 164.395 402.575 166.942C405.968 158.672 414.014 152.845 423.404 152.845C435.169 152.845 444.819 161.97 445.862 173.619C446.38 173.106 447.079 172.788 447.857 172.788C449.448 172.788 450.737 174.095 450.737 175.708H363.971C363.971 174.095 365.261 172.788 366.846 172.788Z" stroke="#333333" stroke-linecap="round" stroke-linejoin="round"/>
<path d="M419.059 156.766C420.465 156.436 421.914 156.269 423.404 156.265C432.843 156.265 440.69 163.045 442.288 172.287M407.891 164.273C409.512 162.006 411.585 160.137 413.96 158.775M448.206 176.074H448.212" stroke="#333333" stroke-linecap="round" stroke-linejoin="round"/>
<path d="M76.2039 181.993C77.4034 181.993 78.4702 182.555 79.1934 183.416C80.3024 179.507 83.8163 176.63 88.0232 176.63C91.1875 176.63 93.978 178.248 95.6415 180.704C97.8535 173.514 104.477 168.298 112.301 168.298C117.363 168.298 121.914 170.497 125.096 173.991C129.743 162.666 140.755 154.701 153.611 154.701C169.709 154.701 182.915 167.186 184.337 183.123C185.048 182.426 186.013 181.993 187.079 181.993C189.255 181.993 191.015 183.782 191.015 185.987H72.2622C72.2622 183.782 74.0281 181.993 76.2039 181.993Z" stroke="#333333" stroke-linecap="round" stroke-linejoin="round"/>
<path d="M147.655 160.064C149.584 159.612 151.569 159.384 153.61 159.38C166.52 159.38 177.261 168.658 179.449 181.302M132.371 170.338C134.595 167.229 137.433 164.676 140.682 162.813M187.555 186.482H187.561" stroke="#333333" stroke-linecap="round" stroke-linejoin="round"/>
<path d="M238.955 35.4324C240.16 35.4324 241.227 35.9882 241.95 36.8556C243.053 32.9463 246.567 30.0694 250.78 30.0694C253.944 30.0694 256.729 31.6819 258.392 34.1436C260.61 26.9542 267.228 21.7378 275.051 21.7378C280.12 21.7378 284.665 23.9367 287.853 27.4306C292.5 16.106 303.512 8.13477 316.367 8.13477C332.46 8.13477 345.665 20.6261 347.094 36.5563C347.805 35.86 348.769 35.4324 349.83 35.4324C352.006 35.4324 353.772 37.216 353.772 39.4211H235.019C235.019 37.216 236.779 35.4324 238.955 35.4324Z" stroke="#333333" stroke-linecap="round" stroke-linejoin="round"/>
<path d="M310.413 13.5037C312.341 13.0476 314.326 12.8175 316.368 12.8135C329.278 12.8135 340.018 22.0919 342.206 34.742M295.128 23.7777C297.352 20.6686 300.191 18.1093 303.433 16.2524M350.306 39.9218H350.312" stroke="#333333" stroke-linecap="round" stroke-linejoin="round"/>
<path d="M306.042 133.151H371.641" stroke="#333333" stroke-linecap="round" stroke-linejoin="round"/>
<path d="M380.628 133.151H399.132" stroke="#333333" stroke-linecap="round" stroke-linejoin="round"/>
<path d="M440.524 519.006H432.447V332.902H440.524V519.006Z" stroke="#333333" stroke-linecap="round" stroke-linejoin="round"/>
<path d="M586.786 502.296H440.524V495.738H586.786V502.296Z" stroke="#333333" stroke-linecap="round" stroke-linejoin="round"/>
<path d="M582.427 502.296H440.524V519.006H582.427V502.296Z" stroke="#333333" stroke-linecap="round" stroke-linejoin="round"/>
<path d="M568.674 479.028H440.524V472.479H568.674V479.028Z" stroke="#333333" stroke-linecap="round" stroke-linejoin="round"/>
<path d="M564.857 479.028H440.524V495.738H564.857V479.028Z" stroke="#333333" stroke-linecap="round" stroke-linejoin="round"/>
<path d="M548.54 455.77H440.524V449.212H548.54V455.77Z" stroke="#333333" stroke-linecap="round" stroke-linejoin="round"/>
<path d="M545.327 455.77H440.524V472.479H545.327V455.77Z" stroke="#333333" stroke-linecap="round" stroke-linejoin="round"/>
<path d="M530.653 432.503H440.524V425.954H530.653V432.503Z" stroke="#333333" stroke-linecap="round" stroke-linejoin="round"/>
<path d="M527.964 432.502H440.524V449.212H527.964V432.502Z" stroke="#333333" stroke-linecap="round" stroke-linejoin="round"/>
<path d="M513.651 409.244H440.524V402.687H513.651V409.244Z" stroke="#333333" stroke-linecap="round" stroke-linejoin="round"/>
<path d="M511.476 409.244H440.524V425.954H511.476V409.244Z" stroke="#333333" stroke-linecap="round" stroke-linejoin="round"/>
<path d="M498.444 385.976H440.524V379.428H498.444V385.976Z" stroke="#333333" stroke-linecap="round" stroke-linejoin="round"/>
<path d="M496.72 385.977H440.524V402.686H496.72V385.977Z" stroke="#333333" stroke-linecap="round" stroke-linejoin="round"/>
<path d="M484.248 362.718H440.524V356.16H484.248V362.718Z" stroke="#333333" stroke-linecap="round" stroke-linejoin="round"/>
<path d="M482.949 362.718H440.524V379.428H482.949V362.718Z" stroke="#333333" stroke-linecap="round" stroke-linejoin="round"/>
<path d="M464.448 339.451H440.524V332.902H464.448V339.451Z" stroke="#333333" stroke-linecap="round" stroke-linejoin="round"/>
<path d="M463.735 339.45H440.524V356.16H463.735V339.45Z" stroke="#333333" stroke-linecap="round" stroke-linejoin="round"/>
<path d="M379.77 519.006H387.847V332.902H379.77V519.006Z" stroke="#333333" stroke-linecap="round" stroke-linejoin="round"/>
<path d="M233.508 502.296H379.77V495.738H233.508V502.296Z" stroke="#333333" stroke-linecap="round" stroke-linejoin="round"/>
<path d="M237.857 502.296H379.77V519.006H237.857V502.296Z" stroke="#333333" stroke-linecap="round" stroke-linejoin="round"/>
<path d="M251.62 479.028H379.77V472.479H251.62V479.028Z" stroke="#333333" stroke-linecap="round" stroke-linejoin="round"/>
<path d="M255.437 479.028H379.77V495.738H255.437V479.028Z" stroke="#333333" stroke-linecap="round" stroke-linejoin="round"/>
<path d="M271.754 455.77H379.77V449.212H271.754V455.77Z" stroke="#333333" stroke-linecap="round" stroke-linejoin="round"/>
<path d="M274.064 456.685H378.868V473.394H274.064V456.685Z" stroke="#333333" stroke-linecap="round" stroke-linejoin="round"/>
<path d="M289.641 432.503H379.77V425.954H289.641V432.503Z" stroke="#333333" stroke-linecap="round" stroke-linejoin="round"/>
<path d="M292.321 432.502H379.77V449.212H292.321V432.502Z" stroke="#333333" stroke-linecap="round" stroke-linejoin="round"/>
<path d="M306.634 409.244H379.77V402.687H306.634V409.244Z" stroke="#333333" stroke-linecap="round" stroke-linejoin="round"/>
<path d="M308.818 409.244H379.77V425.954H308.818V409.244Z" stroke="#333333" stroke-linecap="round" stroke-linejoin="round"/>
<path d="M321.85 385.976H379.77V379.428H321.85V385.976Z" stroke="#333333" stroke-linecap="round" stroke-linejoin="round"/>
<path d="M323.573 385.977H379.77V402.686H323.573V385.977Z" stroke="#333333" stroke-linecap="round" stroke-linejoin="round"/>
<path d="M336.045 362.718H379.77V356.16H336.045V362.718Z" stroke="#333333" stroke-linecap="round" stroke-linejoin="round"/>
<path d="M337.345 362.718H379.77V379.428H337.345V362.718Z" stroke="#333333" stroke-linecap="round" stroke-linejoin="round"/>
<path d="M355.845 339.451H379.77V332.902H355.845V339.451Z" stroke="#333333" stroke-linecap="round" stroke-linejoin="round"/>
<path d="M356.559 339.45H379.77V356.16H356.559V339.45Z" stroke="#333333" stroke-linecap="round" stroke-linejoin="round"/>
<path d="M387.847 332.902H432.447" stroke="#333333" stroke-linecap="round" stroke-linejoin="round"/>
<path d="M387.847 343.072H407.151" stroke="#333333" stroke-linecap="round" stroke-linejoin="round"/>
<path d="M413.207 343.072H420.995" stroke="#333333" stroke-linecap="round" stroke-linejoin="round"/>
<path d="M432.447 361.054H406.068" stroke="#333333" stroke-linecap="round" stroke-linejoin="round"/>
<path d="M400.003 367.639H413.206" stroke="#333333" stroke-linecap="round" stroke-linejoin="round"/>
<path d="M444.648 313.997H375.637V288.004H444.648V313.997Z" stroke="#333333" stroke-linecap="round" stroke-linejoin="round"/>
<path d="M441.814 313.997H378.47V332.902H441.814V313.997Z" stroke="#333333" stroke-linecap="round" stroke-linejoin="round"/>
<path d="M375.637 294.314H400.003" stroke="#333333" stroke-linecap="round" stroke-linejoin="round"/>
<path d="M405.363 294.314H414.559" stroke="#333333" stroke-linecap="round" stroke-linejoin="round"/>
<path d="M397.359 321.396H388.966V332.902H397.359V321.396Z" stroke="#333333" stroke-linecap="round" stroke-linejoin="round"/>
<path d="M414.344 321.396H405.951V332.902H414.344V321.396Z" stroke="#333333" stroke-linecap="round" stroke-linejoin="round"/>
<path d="M431.328 321.396H422.926V332.902H431.328V321.396Z" stroke="#333333" stroke-linecap="round" stroke-linejoin="round"/>
<path d="M388.966 395.168H414.56" stroke="#333333" stroke-linecap="round" stroke-linejoin="round"/>
<path d="M406.068 401.524H422.926" stroke="#333333" stroke-linecap="round" stroke-linejoin="round"/>
<path d="M395.265 425.954H405.95" stroke="#333333" stroke-linecap="round" stroke-linejoin="round"/>
<path d="M414.497 425.954H420.994" stroke="#333333" stroke-linecap="round" stroke-linejoin="round"/>
<path d="M387.847 449.212H417.105" stroke="#333333" stroke-linecap="round" stroke-linejoin="round"/>
<path d="M410.146 442.929H427.131" stroke="#333333" stroke-linecap="round" stroke-linejoin="round"/>
<path d="M432.447 458.111H405.951" stroke="#333333" stroke-linecap="round" stroke-linejoin="round"/>
<path d="M387.82 478.717H417.105" stroke="#333333" stroke-linecap="round" stroke-linejoin="round"/>
<path d="M407.151 483.244H422.926" stroke="#333333" stroke-linecap="round" stroke-linejoin="round"/>
<path d="M395.265 502.296H417.105" stroke="#333333" stroke-linecap="round" stroke-linejoin="round"/>
<path d="M436.49 307.476H419.252" stroke="#333333" stroke-linecap="round" stroke-linejoin="round"/>
<path d="M414.56 307.476H409.958" stroke="#333333" stroke-linecap="round" stroke-linejoin="round"/>
<path d="M199.701 411.301V333.551H-55.1284V411.393" stroke="#333333" stroke-linecap="round" stroke-linejoin="round"/>
<path d="M-55.1284 421.819V529.651H199.701V421.819" stroke="#333333" stroke-linecap="round" stroke-linejoin="round"/>
<path d="M199.701 312.195H-55.1284V286.961H199.701V312.195Z" stroke="#333333" stroke-linecap="round" stroke-linejoin="round"/>
<path d="M205.152 278.464H-60.5791L-55.9946 287.025H200.567L205.152 278.464Z" stroke="#333333" stroke-linecap="round" stroke-linejoin="round"/>
<path d="M214.284 324.807H-69.7212V312.194H214.284V324.807Z" stroke="#333333" stroke-linecap="round" stroke-linejoin="round"/>
<path d="M214.284 324.808H-69.7212L-55.1283 333.551H199.701L214.284 324.808Z" stroke="#333333" stroke-linecap="round" stroke-linejoin="round"/>
<path d="M71.8306 374.553C51.5071 374.553 35.019 391.253 35.019 411.859V529.651H109.545V412.774C109.545 391.665 92.6595 374.553 71.8306 374.553Z" stroke="#333333" stroke-linecap="round" stroke-linejoin="round"/>
<path d="M72.2813 386.195C57.1109 386.195 44.8013 398.661 44.8013 414.045V529.651H99.7704V414.045C99.7704 398.661 87.4608 386.195 72.2813 386.195Z" stroke="#333333" stroke-linecap="round" stroke-linejoin="round"/>
<path d="M27.5918 463.964V514.496" stroke="#333333" stroke-linecap="round" stroke-linejoin="round"/>
<path d="M27.5918 431.523V447.438" stroke="#333333" stroke-linecap="round" stroke-linejoin="round"/>
<path d="M91.1069 369.952C85.5116 367.354 79.2846 365.909 72.7237 365.909H72.0469C51.3263 365.909 33.9087 380.287 28.9902 399.731" stroke="#333333" stroke-linecap="round" stroke-linejoin="round"/>
<path d="M112.892 391.92C110.23 386.094 106.368 380.954 101.639 376.802" stroke="#333333" stroke-linecap="round" stroke-linejoin="round"/>
<path d="M116.98 487.57V431.523" stroke="#333333" stroke-linecap="round" stroke-linejoin="round"/>
<path d="M116.98 510.737V498.198" stroke="#333333" stroke-linecap="round" stroke-linejoin="round"/>
<path d="M35.0187 411.859H-61.6533V418.198H35.0187" stroke="#333333" stroke-linecap="round" stroke-linejoin="round"/>
<path d="M34.8924 421.819H-55.2639L-61.6533 418.197" stroke="#333333" stroke-linecap="round" stroke-linejoin="round"/>
<path d="M109.544 421.819H199.701L206.099 418.197" stroke="#333333" stroke-linecap="round" stroke-linejoin="round"/>
<path d="M-55.1284 348.916H73.3645" stroke="#333333" stroke-linecap="round" stroke-linejoin="round"/>
<path d="M85.9092 348.916H132.179" stroke="#333333" stroke-linecap="round" stroke-linejoin="round"/>
<path d="M145.399 348.916H153.431" stroke="#333333" stroke-linecap="round" stroke-linejoin="round"/>
<path d="M11.8883 365.123H-44.8135V394.994H11.8883V365.123Z" stroke="#333333" stroke-linecap="round" stroke-linejoin="round"/>
<path d="M109.544 411.859H206.225V418.198H109.544" stroke="#333333" stroke-linecap="round" stroke-linejoin="round"/>
<path d="M132.178 365.123H188.88V394.994H132.178V365.123Z" stroke="#333333" stroke-linecap="round" stroke-linejoin="round"/>
<path d="M12.1506 298.649C12.1506 296.244 10.2283 294.296 7.85482 294.296C5.48134 294.296 3.55908 296.244 3.55908 298.649C3.55908 301.055 5.48134 303.003 7.85482 303.003C10.2283 303.003 12.1506 301.055 12.1506 298.649Z" stroke="#333333" stroke-linecap="round" stroke-linejoin="round"/>
<path d="M37.925 298.649C37.925 296.244 36.0027 294.296 33.6292 294.296C31.2558 294.296 29.3335 296.244 29.3335 298.649C29.3335 301.055 31.2558 303.003 33.6292 303.003C36.0027 303.003 37.925 301.055 37.925 298.649Z" stroke="#333333" stroke-linecap="round" stroke-linejoin="round"/>
<path d="M63.6991 298.649C63.6991 296.244 61.7769 294.296 59.4034 294.296C57.0299 294.296 55.0986 296.244 55.0986 298.649C55.0986 301.055 57.0299 303.003 59.4034 303.003C61.7769 303.003 63.6991 301.055 63.6991 298.649Z" stroke="#333333" stroke-linecap="round" stroke-linejoin="round"/>
<path d="M89.4645 298.649C89.4645 296.244 87.5423 294.296 85.1688 294.296C82.7953 294.296 80.873 296.244 80.873 298.649C80.873 301.055 82.7953 303.003 85.1688 303.003C87.5423 303.003 89.4645 301.055 89.4645 298.649Z" stroke="#333333" stroke-linecap="round" stroke-linejoin="round"/>
<path d="M115.238 298.649C115.238 296.244 113.316 294.296 110.943 294.296C108.569 294.296 106.647 296.244 106.647 298.649C106.647 301.055 108.569 303.003 110.943 303.003C113.316 303.003 115.238 301.055 115.238 298.649Z" stroke="#333333" stroke-linecap="round" stroke-linejoin="round"/>
<path d="M141.013 298.649C141.013 296.244 139.091 294.296 136.718 294.296C134.344 294.296 132.422 296.244 132.422 298.649C132.422 301.055 134.344 303.003 136.718 303.003C139.091 303.003 141.013 301.055 141.013 298.649Z" stroke="#333333" stroke-linecap="round" stroke-linejoin="round"/>
<path d="M166.788 298.649C166.788 296.244 164.857 294.296 162.483 294.296C160.11 294.296 158.188 296.244 158.188 298.649C158.188 301.055 160.11 303.003 162.483 303.003C164.857 303.003 166.788 301.055 166.788 298.649Z" stroke="#333333" stroke-linecap="round" stroke-linejoin="round"/>
<path d="M192.553 298.649C192.553 296.244 190.631 294.296 188.257 294.296C185.884 294.296 183.961 296.244 183.961 298.649C183.961 301.055 185.884 303.003 188.257 303.003C190.631 303.003 192.553 301.055 192.553 298.649Z" stroke="#333333" stroke-linecap="round" stroke-linejoin="round"/>
<path d="M19.8757 272.455H13.4141V278.464H19.8757V272.455Z" stroke="#333333" stroke-linecap="round" stroke-linejoin="round"/>
<path d="M42.031 272.455H35.5693V278.464H42.031V272.455Z" stroke="#333333" stroke-linecap="round" stroke-linejoin="round"/>
<path d="M64.1862 272.455H57.7246V278.464H64.1862V272.455Z" stroke="#333333" stroke-linecap="round" stroke-linejoin="round"/>
<path d="M86.342 272.455H79.8804V278.464H86.342V272.455Z" stroke="#333333" stroke-linecap="round" stroke-linejoin="round"/>
<path d="M108.489 272.455H102.027V278.464H108.489V272.455Z" stroke="#333333" stroke-linecap="round" stroke-linejoin="round"/>
<path d="M130.644 272.455H124.182V278.464H130.644V272.455Z" stroke="#333333" stroke-linecap="round" stroke-linejoin="round"/>
<path d="M152.8 272.455H146.338V278.464H152.8V272.455Z" stroke="#333333" stroke-linecap="round" stroke-linejoin="round"/>
<path d="M174.955 272.455H168.493V278.464H174.955V272.455Z" stroke="#333333" stroke-linecap="round" stroke-linejoin="round"/>
<path d="M197.11 272.455H190.648V278.464H197.11V272.455Z" stroke="#333333" stroke-linecap="round" stroke-linejoin="round"/>
<path d="M-31.8267 454.736H9.11822" stroke="#333333" stroke-linecap="round" stroke-linejoin="round"/>
<path d="M-34.1733 498.518H3.55871" stroke="#333333" stroke-linecap="round" stroke-linejoin="round"/>
<path d="M199.701 431.523H157.826" stroke="#333333" stroke-linecap="round" stroke-linejoin="round"/>
<path d="M173.854 440.971H150.841" stroke="#333333" stroke-linecap="round" stroke-linejoin="round"/>
<path d="M186.038 472.863H134.263" stroke="#333333" stroke-linecap="round" stroke-linejoin="round"/>
<path d="M180.622 481.799H199.7" stroke="#333333" stroke-linecap="round" stroke-linejoin="round"/>
<path fill-rule="evenodd" clip-rule="evenodd" d="M234.634 362.444C229.109 384.976 222.772 404.566 216.26 421.421ZM237.379 350.701C248.179 302.156 255.097 240.952 252.708 165.292H268.461C266.063 240.952 272.99 302.156 283.79 350.701H237.379ZM304.909 421.421C298.397 404.566 292.06 384.976 286.535 362.444L304.909 421.421ZM310.699 435.605C332.108 485.317 353.534 506.639 353.534 506.639H315.634C315.651 506.186 315.662 505.73 315.667 505.272C315.667 477.083 291.006 454.228 260.58 454.228C230.154 454.228 205.493 477.083 205.493 505.272C205.499 505.73 205.51 506.186 205.526 506.639H167.626C167.626 506.639 189.052 485.317 210.462 435.605H310.699ZM240.623 421.421C240.623 421.421 244.405 407.222 248.428 381.017H272.741C276.764 407.222 280.546 421.421 280.546 421.421H240.623Z" fill="white"/>
<path d="M234.634 362.444C229.109 384.976 222.772 404.566 216.26 421.421M237.379 350.701C248.179 302.156 255.097 240.952 252.708 165.292H268.461C266.063 240.952 272.99 302.156 283.79 350.701H237.379ZM304.909 421.421C298.397 404.566 292.06 384.976 286.535 362.444L304.909 421.421ZM310.699 435.605C332.108 485.317 353.534 506.639 353.534 506.639H315.634C315.651 506.186 315.662 505.73 315.667 505.272C315.667 477.083 291.006 454.228 260.58 454.228C230.154 454.228 205.493 477.083 205.493 505.272C205.499 505.73 205.51 506.186 205.526 506.639H167.626C167.626 506.639 189.052 485.317 210.462 435.605H310.699ZM240.623 421.421C240.623 421.421 244.405 407.222 248.428 381.017H272.741C276.764 407.222 280.546 421.421 280.546 421.421H240.623Z" stroke="#333333" stroke-linecap="round" stroke-linejoin="round"/>
<path d="M257.337 242.814C256.895 250.551 256.356 258.095 255.72 265.446M258.631 186.135C258.781 201.851 258.523 216.894 257.91 231.3" stroke="#333333" stroke-linecap="round" stroke-linejoin="round"/>
<path d="M291.422 362.444H229.748C228.761 362.444 227.965 361.756 227.965 360.904V352.241C227.965 351.389 228.761 350.701 229.748 350.701H291.422C292.4 350.701 293.205 351.389 293.205 352.241V360.904C293.205 361.756 292.4 362.444 291.422 362.444Z" stroke="#333333" stroke-linecap="round" stroke-linejoin="round"/>
<path d="M316.24 431.696H204.93V424.851C204.93 422.96 206.705 421.421 208.903 421.421H313.146C314.855 421.421 316.24 422.617 316.24 424.092V431.696Z" fill="white" stroke="#333333" stroke-linecap="round" stroke-linejoin="round"/>
<path d="M316.149 431.695H205.012L210.669 435.755H310.5L316.149 431.695Z" fill="white" stroke="#333333" stroke-linecap="round" stroke-linejoin="round"/>
<path d="M271.696 154.502H249.474V144.95H271.696V154.502Z" stroke="#333333" stroke-linecap="round" stroke-linejoin="round"/>
<path d="M268.859 144.95H252.311V141.721H268.859V144.95Z" stroke="#333333" stroke-linecap="round" stroke-linejoin="round"/>
<path d="M266.072 141.721H255.098V138.334H266.072V141.721Z" stroke="#333333" stroke-linecap="round" stroke-linejoin="round"/>
<path d="M266.735 165.292H254.26C249.2 165.292 245.094 161.748 245.094 157.373V154.502H276.076V157.223C276.076 161.683 271.895 165.292 266.735 165.292Z" stroke="#333333" stroke-linecap="round" stroke-linejoin="round"/>
<path d="M262.389 134.812H258.789C257.802 134.812 257.006 135.499 257.006 136.351V138.334H264.164V136.337C264.164 135.492 263.368 134.812 262.389 134.812Z" stroke="#333333" stroke-linecap="round" stroke-linejoin="round"/>
<path d="M261.493 110.238H259.676L258.78 134.812H262.389L261.493 110.238Z" stroke="#333333" stroke-linecap="round" stroke-linejoin="round"/>
<path d="M263.417 107.789C263.417 109.142 262.148 110.238 260.58 110.238C259.021 110.238 257.752 109.142 257.752 107.789C257.752 106.443 259.021 105.348 260.58 105.348C262.148 105.348 263.417 106.443 263.417 107.789Z" stroke="#333333" stroke-linecap="round" stroke-linejoin="round"/>
<path d="M260.581 107.081V97.7656" stroke="#333333" stroke-linecap="round" stroke-linejoin="round"/>
<path d="M214.958 440.151H249.324" stroke="#333333" stroke-linecap="round" stroke-linejoin="round"/>
<path d="M257.03 440.151H267.399" stroke="#333333" stroke-linecap="round" stroke-linejoin="round"/>
<path d="M233.572 366.683H257.03" stroke="#333333" stroke-linecap="round" stroke-linejoin="round"/>
<path d="M262.215 366.683H271.787" stroke="#333333" stroke-linecap="round" stroke-linejoin="round"/>
<path d="M286.536 452.846C278.631 449.731 269.846 447.991 260.581 447.991C234.111 447.991 211.482 462.197 202.375 482.266" stroke="#333333" stroke-linecap="round" stroke-linejoin="round"/>
<path d="M317.261 479.181C312.997 471.283 306.593 464.431 298.688 459.176" stroke="#333333" stroke-linecap="round" stroke-linejoin="round"/>
<path d="M219.238 413.48H229.358" stroke="#333333" stroke-linecap="round" stroke-linejoin="round"/>
<path d="M221.578 406.9H235.986" stroke="#333333" stroke-linecap="round" stroke-linejoin="round"/>
<path d="M282.496 344.715H257.03" stroke="#333333" stroke-linecap="round" stroke-linejoin="round"/>
<path d="M281.334 339.109H267" stroke="#333333" stroke-linecap="round" stroke-linejoin="round"/>
<path d="M228.778 359.457H263.725" stroke="#333333" stroke-linecap="round" stroke-linejoin="round"/>
<path d="M268.81 359.457H275.28" stroke="#333333" stroke-linecap="round" stroke-linejoin="round"/>
<path d="M247.184 294.001H255.72" stroke="#333333" stroke-linecap="round" stroke-linejoin="round"/>
<path d="M247.897 288.244H251.456" stroke="#333333" stroke-linecap="round" stroke-linejoin="round"/>
<path d="M245.094 157.709H257.91" stroke="#333333" stroke-linecap="round" stroke-linejoin="round"/>
<path d="M262.389 157.709H266.072" stroke="#333333" stroke-linecap="round" stroke-linejoin="round"/>
</g>
<defs>
<clipPath id="clip0_56_3020">
<rect width="465" height="502" rx="20" fill="white"/>
</clipPath>
</defs>
</svg>
