<svg width="465" height="502" viewBox="0 0 465 502" fill="none" xmlns="http://www.w3.org/2000/svg">
<g clip-path="url(#clip0_56_2835)">
<rect width="465" height="502" rx="20" fill="#F6F3E6"/>
<path fill-rule="evenodd" clip-rule="evenodd" d="M437.154 507.988V484.046H424.653V507.988H437.154ZM435.533 506.286H426.262V485.748H435.533V506.286Z" fill="#424242"/>
<path fill-rule="evenodd" clip-rule="evenodd" d="M394.738 507.988H407.251V484.046H394.738V507.988ZM396.359 485.761H405.63V506.286H396.359V485.761Z" fill="#424242"/>
<path fill-rule="evenodd" clip-rule="evenodd" d="M363.973 507.988H376.487V484.046H363.973V507.988ZM365.594 485.761H374.866V506.286H365.594V485.761Z" fill="#424242"/>
<path fill-rule="evenodd" clip-rule="evenodd" d="M324.456 567.662V551.976H338.046L354.005 517.479V475.206H337.743V458.031H354.005V444.511H368.431V353.597L362.554 347.429V318.914C360.806 320.669 357.982 321.852 355.879 321.852C351.662 321.852 347.166 319.366 347.166 312.4V300.928L343.911 295.385L342.163 296.634C341.724 296.953 341.238 297.113 340.706 297.113C340.546 297.113 340.381 297.095 340.212 297.06C339.528 296.927 338.933 296.528 338.54 295.93L328.18 280.044C327.369 278.808 327.673 277.093 328.864 276.242L331.511 274.341L326.572 265.953L348.825 250.306L352.764 257.259L362.554 248.698V245.813C362.554 234.593 370.977 222.496 384.592 222.337V196.76V196.627L382.439 194.367L368.634 191.429L383.288 188.053C383.397 187.689 383.52 187.317 383.655 186.936L370.66 173.151L387.898 179.027C387.999 178.911 388.096 178.796 388.189 178.681L382.338 158.236L395.928 173.523C396.071 173.488 396.211 173.452 396.346 173.417L400.576 152.745L404.806 173.377C404.95 173.421 405.094 173.47 405.237 173.523L418.814 158.236L412.963 178.681C413.064 178.796 413.166 178.911 413.267 179.027L429.01 173.656V127.115C429.01 125.055 429.783 123.101 431.176 121.639C431.75 121.062 432.396 120.588 433.114 120.216V114.633C427.68 114.447 425.071 112.213 425.071 101.805V100.954H434.368V97.3646C430.365 93.2968 429.593 86.7298 432.05 77.2382L432.696 74.7656L433.582 77.1585C433.608 77.2117 435.786 82.981 439.611 83.1937C442.942 83.3798 445.754 85.8258 446.603 89.2688C447.401 92.4859 446.311 95.57 443.791 97.4576V100.954H453.087V101.805C453.087 113.024 448.616 114.513 443.804 114.633C443.829 116.959 443.829 118.435 443.804 119.365H444.829C446.425 119.365 447.743 120.735 447.743 122.423V133.616C447.743 135.304 446.425 136.673 444.829 136.673H443.791V148.677V186.099C447.299 188.904 449.199 193.158 449.199 195.843V217.099C449.199 220.476 445.919 224.597 441.714 226.325V249.097C441.714 252.048 437.711 257.671 432.696 258.229V272.187L438.332 278.09L438.573 278.342V439.46L431.708 432.268V444.511H447.122V458.031H463.384V475.206H447.122V517.479L463.08 551.976H476.671V567.662H582.82V602.039H218.319V567.662H324.456ZM400.563 518.529H355.322L351.877 525.974H449.25L445.805 518.529H400.563ZM351.092 527.675L343.797 543.428H457.33L450.035 527.675H351.092ZM343.024 545.13L339.858 551.976H461.282L458.116 545.13H343.024ZM426.009 553.677V567.662H449.313V553.677H426.009ZM424.387 553.677H401.387V567.662H424.387V553.677ZM399.766 553.677H376.752V567.675H399.766V553.677ZM375.131 553.677H351.827V567.662H375.131V553.677ZM350.218 553.677H338.566H326.078V567.675H350.218V553.677ZM370.052 444.511H380.97V366.757L370.052 355.312V444.511ZM407.644 407.01V444.511H418.561V418.456L407.644 407.01ZM436.951 301.739L420.474 284.457V366.04L436.951 383.334V301.739ZM418.852 282.756L393.116 255.73V337.326L407.099 352.015V312.4H408.72V353.716L418.852 364.351V282.756ZM375.98 359.14L391.495 375.411V254.029L378.323 240.217C378.019 240.27 377.538 240.429 377.132 240.855C376.592 241.422 376.317 242.312 376.309 243.527V359.14H375.98ZM393.116 339.732V377.113L393.445 377.472L387.619 383.587L412.292 409.483V359.858L393.116 339.732ZM406.022 405.309L395.117 393.863V444.511H406.022V405.309ZM393.496 392.161L385.327 383.587L391.166 377.472L382.578 368.459V444.511H393.496V392.161ZM348.787 312.414C348.787 319.406 353.752 320.164 355.879 320.164C358.577 320.164 362.554 317.744 362.554 315.577V304.025L353.131 311.058L348.787 303.693V312.414ZM348.306 252.726L328.775 266.458L332.854 273.397L334.171 272.44C334.741 272.028 335.437 271.882 336.121 272.015C336.805 272.148 337.401 272.56 337.793 273.158L348.154 289.03C348.964 290.28 348.66 291.981 347.482 292.832L345.24 294.441L353.6 308.625L362.554 301.938V277.85L348.306 252.726ZM329.523 279.1L339.883 294.973C340.043 295.212 340.255 295.358 340.516 295.411C340.786 295.464 341.031 295.411 341.251 295.252L346.57 291.436C347.014 291.117 347.128 290.466 346.824 289.987L336.463 274.115C336.303 273.885 336.092 273.743 335.83 273.69C335.762 273.672 335.699 273.663 335.64 273.663C335.437 273.663 335.252 273.725 335.083 273.849L329.776 277.664C329.333 277.983 329.219 278.635 329.523 279.1ZM353.612 258.761L362.554 274.527V250.931L353.612 258.761ZM431.898 256.607C436.47 256.607 440.105 251.224 440.105 249.123V226.883C439.337 227.078 438.556 227.176 437.762 227.176V225.474C442.993 225.474 447.591 220.276 447.591 217.126V195.856C447.591 193.822 446.197 190.685 443.804 188.332V196.614C443.804 200.894 440.485 204.377 436.407 204.377C432.341 204.377 429.023 200.894 429.023 196.614V187.189C425.932 189.661 424.565 193.397 424.565 194.979V211.17H423.754C421.753 211.17 418.08 213.178 418.08 216.461C418.08 218.296 417.333 220.09 415.965 221.499C414.394 223.121 412.266 224.038 410.101 224.038C410.05 224.038 410.003 224.038 409.961 224.038C406.922 223.998 392.154 224.025 386.809 224.025L431.087 270.499V256.607H431.898ZM388.443 180.941L390.456 183.134C390.904 182.762 391.373 182.416 391.862 182.097C392.048 181.964 392.238 181.84 392.432 181.725C392.981 181.406 393.547 181.118 394.129 180.861L392.597 176.886C390.925 177.99 389.557 179.385 388.443 180.941ZM391.672 203.912C391.672 205.747 392.166 207.501 393.116 209.003L393.23 209.19C394.902 211.742 397.625 213.257 400.576 213.257C403.502 213.257 406.212 211.755 407.884 209.229L408.023 209.003C408.973 207.501 409.48 205.747 409.48 203.912V196.056C407.821 195.657 406.326 195.098 405.098 194.341C404.414 193.933 403.776 193.446 403.185 192.878C402.67 192.4 402.227 191.886 401.855 191.336C401.323 190.574 400.897 189.737 400.576 188.824C400.281 189.657 399.896 190.428 399.424 191.137C399.044 191.722 398.588 192.28 398.119 192.719C397.57 193.277 396.903 193.805 396.118 194.301C394.877 195.072 393.369 195.63 391.672 196.056V203.912ZM416.256 193.822C416.298 194.026 416.336 194.225 416.37 194.42L417.421 193.317C417.32 192.639 417.067 191.164 416.547 189.342L415.027 190.047C415.509 191.146 415.876 192.227 416.129 193.29C416.172 193.468 416.214 193.645 416.256 193.822ZM414.812 194.979C414.787 194.837 414.762 194.686 414.736 194.527C414.643 194.013 414.517 193.477 414.356 192.918C414.339 192.856 414.322 192.794 414.306 192.732C414.221 192.457 414.124 192.178 414.014 191.895C413.972 191.762 413.926 191.629 413.875 191.496C413.774 191.248 413.668 191.004 413.558 190.765C413.482 190.579 413.402 190.392 413.318 190.206C413.259 190.091 413.195 189.976 413.128 189.861C412.765 189.134 412.355 188.434 411.899 187.76C411.874 187.725 411.844 187.685 411.81 187.641C411.329 186.941 410.81 186.289 410.253 185.687C410.185 185.616 410.117 185.549 410.05 185.487C408.8 184.202 407.441 183.205 405.972 182.496C405.887 182.452 405.803 182.408 405.718 182.363C405.102 182.088 404.46 181.863 403.793 181.685C403.658 181.65 403.519 181.619 403.375 181.592C402.818 181.459 402.248 181.371 401.665 181.326C401.572 181.309 401.48 181.295 401.387 181.286V184.105C401.387 186.586 401.978 188.66 403.16 190.326C403.472 190.778 403.84 191.203 404.262 191.602C404.777 192.09 405.326 192.511 405.908 192.865C407.166 193.636 408.682 194.203 410.455 194.567C411.739 194.859 413.195 195.027 414.825 195.072C414.825 195.045 414.821 195.014 414.812 194.979ZM390.697 194.567C392.512 194.186 394.041 193.61 395.282 192.839C395.957 192.422 396.536 191.966 397.017 191.469C397.414 191.097 397.777 190.658 398.106 190.153C399.212 188.54 399.766 186.524 399.766 184.105V181.286C399.681 181.286 399.601 181.291 399.525 181.3C398.909 181.344 398.301 181.419 397.701 181.526C397.634 181.543 397.562 181.557 397.486 181.566C396.802 181.707 396.135 181.894 395.485 182.124C395.459 182.133 395.438 182.142 395.421 182.151C393.724 182.78 392.221 183.688 390.912 184.876C390.887 184.902 390.862 184.929 390.836 184.955C390.532 185.23 390.245 185.523 389.975 185.833C389.874 185.948 389.772 186.063 389.671 186.178C389.494 186.391 389.321 186.613 389.152 186.843C389.008 187.047 388.865 187.255 388.721 187.468C388.628 187.61 388.535 187.756 388.443 187.907C388.274 188.19 388.113 188.478 387.961 188.771C387.911 188.868 387.864 188.966 387.822 189.063C387.678 189.356 387.548 189.653 387.429 189.954C387.159 190.619 386.935 191.31 386.758 192.028C386.716 192.196 386.678 192.364 386.644 192.533C386.475 193.304 386.357 194.097 386.289 194.912C386.289 194.965 386.289 195.019 386.289 195.072C387.902 195.036 389.371 194.868 390.697 194.567ZM386.391 188.266C387.125 186.759 388.071 185.412 389.228 184.224L387.505 182.35C386.441 184.118 385.644 185.952 385.074 187.641L386.391 188.266ZM395.662 180.303C396.177 180.134 396.709 179.997 397.258 179.891C397.384 179.864 397.515 179.842 397.65 179.824C398.334 179.7 399.035 179.62 399.753 179.585V174.626C397.566 174.742 395.653 175.211 394.015 176.036L395.662 180.303ZM401.387 179.558V179.598C402.155 179.643 402.894 179.749 403.603 179.917C403.747 179.944 403.895 179.975 404.046 180.01C404.587 180.152 405.106 180.32 405.604 180.515L407.276 176.155C405.495 175.225 403.527 174.706 401.374 174.6L401.387 179.558ZM408.707 177.019L407.099 181.193C407.15 181.22 407.2 181.247 407.251 181.273C407.403 181.344 407.555 181.419 407.707 181.499C408.805 182.155 409.839 182.957 410.81 183.905L413.102 181.592C411.836 179.687 410.371 178.162 408.707 177.019ZM413.976 183.081L411.924 185.128C412.228 185.483 412.511 185.842 412.773 186.205C413.001 186.506 413.225 186.817 413.444 187.136C413.74 187.605 414.019 188.075 414.28 188.545L416.028 187.734C415.462 186.05 414.778 184.499 413.976 183.081ZM418.966 192.613L423.767 191.589C423.817 191.456 423.872 191.327 423.931 191.203L418.409 189.941C418.688 191.057 418.865 191.974 418.966 192.613ZM414.926 196.747C413.558 196.72 412.283 196.601 411.101 196.388V203.912C411.101 205.999 410.557 207.993 409.518 209.721V222.323C409.695 222.332 409.856 222.337 409.999 222.337C411.785 222.297 413.571 221.606 414.838 220.29C414.871 220.254 414.901 220.219 414.926 220.183V196.747ZM407.897 211.808C405.946 213.802 403.35 214.959 400.589 214.959C397.815 214.959 395.206 213.802 393.268 211.822V222.31C398.334 222.31 404.464 222.297 407.897 222.31V211.808ZM391.647 209.721V209.708C390.608 207.98 390.064 205.986 390.064 203.912V196.388C388.882 196.592 387.607 196.711 386.239 196.747V222.323C387.442 222.323 389.38 222.323 391.647 222.323V209.721ZM384.719 194.354C384.727 194.283 384.736 194.212 384.744 194.141C384.778 193.849 384.82 193.556 384.871 193.264C384.905 193.016 384.943 192.768 384.985 192.519C385.171 191.58 385.424 190.676 385.745 189.808L384.592 189.263C384.073 191.11 383.82 192.613 383.731 193.304L384.719 194.354ZM376.486 191.376L382.198 192.599C382.3 191.974 382.49 191.031 382.768 189.927L376.486 191.376ZM376.512 176.939L384.326 185.235C384.985 183.653 385.821 182.018 386.872 180.462L376.512 176.939ZM385.909 164.736L389.506 177.312C390.849 176.009 392.432 174.932 394.281 174.148L385.909 164.736ZM400.601 160.854L398.094 173.058C398.634 172.987 399.191 172.943 399.766 172.925V172.872H400.525C400.542 172.863 400.559 172.858 400.576 172.858V172.872C401.437 172.872 402.278 172.934 403.097 173.058L400.601 160.854ZM406.947 174.121C407.496 174.352 408.028 174.613 408.543 174.906C409.674 175.561 410.725 176.363 411.696 177.312L415.293 164.736L406.947 174.121ZM414.318 180.476C414.504 180.724 414.681 180.981 414.85 181.247C415.61 182.47 416.256 183.839 416.851 185.261L424.691 176.953L414.318 180.476ZM417.485 186.989C417.599 187.295 417.738 187.588 417.827 187.907C417.843 187.96 417.86 188.017 417.877 188.079L424.742 189.648C425.743 187.986 427.161 186.365 429.036 185.142V174.746L417.485 186.989ZM430.644 127.129V196.614C430.644 199.951 433.241 202.662 436.42 202.662C439.599 202.662 442.182 199.951 442.182 196.614V152.386C441.359 153.144 440.283 153.623 439.105 153.623C436.496 153.623 434.38 151.416 434.38 148.691V132.127C434.38 132.109 434.385 132.096 434.393 132.087V122.436C434.402 122.082 434.465 121.745 434.583 121.426C434.473 121.452 434.359 121.488 434.241 121.532C433.515 121.842 432.882 122.281 432.341 122.848C431.252 124.005 430.644 125.52 430.644 127.129ZM445.057 89.7208C444.526 87.6071 442.778 85.0947 439.535 84.9086C436.407 84.7358 434.266 81.9441 433.101 79.9102C430.745 90.9571 434.051 94.7723 435.508 96.1947H442.727C445.184 94.4666 445.551 91.7281 445.057 89.7208ZM442.182 97.8963H436.002V100.967H442.182V97.8963ZM451.479 102.655H426.718C426.857 112.453 429.58 112.958 433.95 112.958H442.993C447.667 112.958 451.276 112.187 451.479 102.655ZM442.195 114.659H434.748V119.591C435.491 119.423 436.242 119.37 437.002 119.432C437.104 119.432 437.192 119.379 437.306 119.379H442.22C442.22 118.302 442.208 116.295 442.195 114.659ZM446.134 133.629V122.436C446.134 121.678 445.551 121.067 444.842 121.067H443.158C443.132 121.076 443.111 121.08 443.094 121.08L443.069 121.067H438.674L438.522 121.492C438.032 121.297 437.53 121.178 437.015 121.133C436.445 121.28 436.002 121.785 436.002 122.436V131.223L436.116 131.263C436.048 131.52 436.01 131.79 436.002 132.074V133.629C436.002 134.387 436.584 134.985 437.306 134.985H444.842C445.551 134.985 446.134 134.387 446.134 133.629ZM437.306 136.687C436.833 136.678 436.398 136.558 436.002 136.328V148.677C436.002 150.472 437.395 151.921 439.105 151.921C440.802 151.921 442.182 150.472 442.182 148.677V136.687H437.306ZM423.171 193.437L418.701 194.394L416.547 196.64V215.889C416.889 212.313 420.22 209.934 422.956 209.522V194.965C422.965 194.522 423.036 194.013 423.171 193.437ZM384.554 224.038C371.965 224.224 364.201 235.431 364.201 245.826V346.737L374.726 357.784V243.527C374.726 241.825 375.165 240.522 376.043 239.618C377.158 238.475 378.513 238.502 378.677 238.488H379.007L436.977 299.333V279.06L384.554 224.038ZM436.977 385.74L413.926 361.56V411.184L424.843 422.643V393.996H426.464V424.332L436.977 435.365V385.74ZM430.112 430.58L420.195 420.171V444.524H430.112V430.58ZM445.526 446.213H355.652V458.031H445.526V446.213ZM461.789 459.732H447.147H446.337H354.841H354.03H339.389V473.504H461.789V459.732ZM355.652 475.219V516.841H400.589H445.526V475.219H355.652ZM475.087 553.677H462.612H450.96V567.675H475.087V553.677ZM219.966 600.337H581.224V569.377H476.709H475.898H400.601H325.292H324.482H219.966V600.337Z" fill="#424242"/>
<path fill-rule="evenodd" clip-rule="evenodd" d="M227.659 304.373V311.308H234.25V304.373H227.659ZM228.99 305.77H232.951V309.927H228.99V305.77Z" fill="#424242"/>
<path fill-rule="evenodd" clip-rule="evenodd" d="M234.25 314.231H227.659V321.166H234.25V314.231ZM232.935 319.77H228.974V315.612H232.935V319.77Z" fill="#424242"/>
<path fill-rule="evenodd" clip-rule="evenodd" d="M234.25 324.09H227.659V331.025H234.25V324.09ZM232.935 329.628H228.974V325.47H232.935V329.628Z" fill="#424242"/>
<path fill-rule="evenodd" clip-rule="evenodd" d="M234.25 333.947H227.659V340.882H234.25V333.947ZM232.935 339.485H228.974V335.328H232.935V339.485Z" fill="#424242"/>
<path fill-rule="evenodd" clip-rule="evenodd" d="M234.25 343.806H227.659V350.724H234.25V343.806ZM232.935 349.36H228.974V345.202H232.935V349.36Z" fill="#424242"/>
<path fill-rule="evenodd" clip-rule="evenodd" d="M234.25 353.664H227.659V360.582H234.25V353.664ZM232.935 359.218H228.974V355.044H232.935V359.218Z" fill="#424242"/>
<path fill-rule="evenodd" clip-rule="evenodd" d="M234.25 363.521H227.659V370.44H234.25V363.521ZM232.935 369.076H228.974V364.902H232.935V369.076Z" fill="#424242"/>
<path fill-rule="evenodd" clip-rule="evenodd" d="M234.25 373.363H227.659V380.298H234.25V373.363ZM232.935 378.901H228.974V374.744H232.935V378.901Z" fill="#424242"/>
<path fill-rule="evenodd" clip-rule="evenodd" d="M234.25 383.222H227.659V390.156H234.25V383.222ZM232.935 388.76H228.974V384.602H232.935V388.76Z" fill="#424242"/>
<path fill-rule="evenodd" clip-rule="evenodd" d="M234.25 393.079H227.659V400.014H234.25V393.079ZM232.935 398.617H228.974V394.46H232.935V398.617Z" fill="#424242"/>
<path fill-rule="evenodd" clip-rule="evenodd" d="M234.25 402.938H227.659V409.872H234.25V402.938ZM232.935 408.476H228.974V404.318H232.935V408.476Z" fill="#424242"/>
<path fill-rule="evenodd" clip-rule="evenodd" d="M234.25 412.795H227.659V419.73H234.25V412.795ZM232.935 418.333H228.974V414.175H232.935V418.333Z" fill="#424242"/>
<path fill-rule="evenodd" clip-rule="evenodd" d="M234.25 432.511H227.659V439.429H234.25V432.511ZM232.935 438.065H228.974V433.891H232.935V438.065Z" fill="#424242"/>
<path fill-rule="evenodd" clip-rule="evenodd" d="M234.25 442.369H227.659V449.288H234.25V442.369ZM232.935 447.923H228.974V443.75H232.935V447.923Z" fill="#424242"/>
<path fill-rule="evenodd" clip-rule="evenodd" d="M234.25 452.211H227.659V459.146H234.25V452.211ZM232.935 457.749H228.974V453.591H232.935V457.749Z" fill="#424242"/>
<path fill-rule="evenodd" clip-rule="evenodd" d="M234.25 462.069H227.659V469.004H234.25V462.069ZM232.935 467.607H228.974V463.45H232.935V467.607Z" fill="#424242"/>
<path fill-rule="evenodd" clip-rule="evenodd" d="M234.25 471.927H227.659V478.861H234.25V471.927ZM232.935 477.465H228.974V473.307H232.935V477.465Z" fill="#424242"/>
<path fill-rule="evenodd" clip-rule="evenodd" d="M234.25 481.785H227.659V488.72H234.25V481.785ZM232.935 487.323H228.974V483.166H232.935V487.323Z" fill="#424242"/>
<path fill-rule="evenodd" clip-rule="evenodd" d="M234.25 491.644H227.659V498.578H234.25V491.644ZM232.935 497.182H228.974V493.024H232.935V497.182Z" fill="#424242"/>
<path fill-rule="evenodd" clip-rule="evenodd" d="M234.25 501.501H227.659V508.419H234.25V501.501ZM232.935 507.055H228.974V502.898H232.935V507.055Z" fill="#424242"/>
<path fill-rule="evenodd" clip-rule="evenodd" d="M220.836 300.265V516.816H306.929V300.265H287.897V292.875H277.05L271.232 250.357L269.917 250.455V292.875H258.358V250.455L257.043 250.357L251.225 292.875H239.883V300.265H220.836ZM257.028 292.875H252.556L257.028 260.134V292.875ZM275.704 292.875H271.232V260.134L275.704 292.875ZM287.882 515.679V301.645H305.598V515.679H287.882ZM241.198 515.679V294.256H286.566V515.679H241.198ZM222.151 515.679V301.645H239.883V515.679H222.151Z" fill="#424242"/>
<path fill-rule="evenodd" clip-rule="evenodd" d="M293.513 304.373V311.308H300.121V304.373H293.513ZM294.829 305.77H298.79V309.927H294.829V305.77Z" fill="#424242"/>
<path fill-rule="evenodd" clip-rule="evenodd" d="M300.121 314.231H293.513V321.166H300.121V314.231ZM298.805 319.77H294.844V315.612H298.805V319.77Z" fill="#424242"/>
<path fill-rule="evenodd" clip-rule="evenodd" d="M300.121 324.09H293.513V331.025H300.121V324.09ZM298.805 329.628H294.844V325.47H298.805V329.628Z" fill="#424242"/>
<path fill-rule="evenodd" clip-rule="evenodd" d="M300.121 333.947H293.513V340.882H300.121V333.947ZM298.805 339.485H294.844V335.328H298.805V339.485Z" fill="#424242"/>
<path fill-rule="evenodd" clip-rule="evenodd" d="M300.121 343.806H293.513V350.724H300.121V343.806ZM298.805 349.36H294.844V345.202H298.805V349.36Z" fill="#424242"/>
<path fill-rule="evenodd" clip-rule="evenodd" d="M300.121 353.664H293.513V360.582H300.121V353.664ZM298.805 359.218H294.844V355.044H298.805V359.218Z" fill="#424242"/>
<path fill-rule="evenodd" clip-rule="evenodd" d="M300.121 363.521H293.513V370.44H300.121V363.521ZM298.805 369.076H294.844V364.902H298.805V369.076Z" fill="#424242"/>
<path fill-rule="evenodd" clip-rule="evenodd" d="M300.121 373.363H293.513V380.298H300.121V373.363ZM298.805 378.901H294.844V374.744H298.805V378.901Z" fill="#424242"/>
<path fill-rule="evenodd" clip-rule="evenodd" d="M300.121 383.222H293.513V390.156H300.121V383.222ZM298.805 388.76H294.844V384.602H298.805V388.76Z" fill="#424242"/>
<path fill-rule="evenodd" clip-rule="evenodd" d="M300.121 393.079H293.513V400.014H300.121V393.079ZM298.805 398.617H294.844V394.46H298.805V398.617Z" fill="#424242"/>
<path fill-rule="evenodd" clip-rule="evenodd" d="M300.121 402.938H293.513V409.872H300.121V402.938ZM298.805 408.476H294.844V404.318H298.805V408.476Z" fill="#424242"/>
<path fill-rule="evenodd" clip-rule="evenodd" d="M300.121 412.795H293.513V419.73H300.121V412.795ZM298.805 418.333H294.844V414.175H298.805V418.333Z" fill="#424242"/>
<path fill-rule="evenodd" clip-rule="evenodd" d="M300.121 422.653H293.513V429.572H300.121V422.653ZM298.805 428.208H294.844V424.05H298.805V428.208Z" fill="#424242"/>
<path fill-rule="evenodd" clip-rule="evenodd" d="M300.121 432.511H293.513V439.429H300.121V432.511ZM298.805 438.065H294.844V433.891H298.805V438.065Z" fill="#424242"/>
<path fill-rule="evenodd" clip-rule="evenodd" d="M300.121 442.369H293.513V449.288H300.121V442.369ZM298.805 447.923H294.844V443.75H298.805V447.923Z" fill="#424242"/>
<path fill-rule="evenodd" clip-rule="evenodd" d="M300.121 452.211H293.513V459.146H300.121V452.211ZM298.805 457.749H294.844V453.591H298.805V457.749Z" fill="#424242"/>
<path fill-rule="evenodd" clip-rule="evenodd" d="M300.121 462.069H293.513V469.004H300.121V462.069ZM298.805 467.607H294.844V463.45H298.805V467.607Z" fill="#424242"/>
<path fill-rule="evenodd" clip-rule="evenodd" d="M300.121 471.927H293.513V478.861H300.121V471.927ZM298.805 477.465H294.844V473.307H298.805V477.465Z" fill="#424242"/>
<path fill-rule="evenodd" clip-rule="evenodd" d="M300.121 481.785H293.513V488.72H300.121V481.785ZM298.805 487.323H294.844V483.166H298.805V487.323Z" fill="#424242"/>
<path fill-rule="evenodd" clip-rule="evenodd" d="M300.121 491.644H293.513V498.578H300.121V491.644ZM298.805 497.182H294.844V493.024H298.805V497.182Z" fill="#424242"/>
<path fill-rule="evenodd" clip-rule="evenodd" d="M300.121 501.501H293.513V508.419H300.121V501.501ZM298.805 507.055H294.844V502.898H298.805V507.055Z" fill="#424242"/>
<path fill-rule="evenodd" clip-rule="evenodd" d="M281.444 363.521H271.51V370.44H281.444V363.521ZM280.113 369.076H272.825V364.902H280.113V369.076Z" fill="#424242"/>
<path fill-rule="evenodd" clip-rule="evenodd" d="M268.912 363.521H258.993V370.44H268.912V363.521ZM267.596 369.076H260.308V364.902H267.596V369.076Z" fill="#424242"/>
<path fill-rule="evenodd" clip-rule="evenodd" d="M256.393 363.521H246.475V370.44H256.393V363.521ZM255.078 369.076H247.79V364.902H255.078V369.076Z" fill="#424242"/>
<path fill-rule="evenodd" clip-rule="evenodd" d="M281.444 375.02H271.51V381.938H281.444V375.02ZM280.113 380.574H272.825V376.4H280.113V380.574Z" fill="#424242"/>
<path fill-rule="evenodd" clip-rule="evenodd" d="M268.912 375.02H258.993V381.938H268.912V375.02ZM267.596 380.574H260.308V376.4H267.596V380.574Z" fill="#424242"/>
<path fill-rule="evenodd" clip-rule="evenodd" d="M256.393 375.02H246.475V381.938H256.393V375.02ZM255.078 380.574H247.79V376.4H255.078V380.574Z" fill="#424242"/>
<path fill-rule="evenodd" clip-rule="evenodd" d="M281.444 386.519H271.51V393.437H281.444V386.519ZM280.113 392.057H272.825V387.899H280.113V392.057Z" fill="#424242"/>
<path fill-rule="evenodd" clip-rule="evenodd" d="M268.912 386.519H258.993V393.437H268.912V386.519ZM267.596 392.057H260.308V387.899H267.596V392.057Z" fill="#424242"/>
<path fill-rule="evenodd" clip-rule="evenodd" d="M256.393 386.519H246.475V393.437H256.393V386.519ZM255.078 392.057H247.79V387.899H255.078V392.057Z" fill="#424242"/>
<path fill-rule="evenodd" clip-rule="evenodd" d="M281.444 398.017H271.51V404.935H281.444V398.017ZM280.113 403.571H272.825V399.397H280.113V403.571Z" fill="#424242"/>
<path fill-rule="evenodd" clip-rule="evenodd" d="M268.912 398.017H258.993V404.935H268.912V398.017ZM267.596 403.571H260.308V399.397H267.596V403.571Z" fill="#424242"/>
<path fill-rule="evenodd" clip-rule="evenodd" d="M256.393 398.017H246.475V404.935H256.393V398.017ZM255.078 403.571H247.79V399.397H255.078V403.571Z" fill="#424242"/>
<path fill-rule="evenodd" clip-rule="evenodd" d="M281.444 409.515H271.51V416.433H281.444V409.515ZM280.113 415.069H272.825V410.895H280.113V415.069Z" fill="#424242"/>
<path fill-rule="evenodd" clip-rule="evenodd" d="M268.912 409.515H258.993V416.433H268.912V409.515ZM267.596 415.069H260.308V410.895H267.596V415.069Z" fill="#424242"/>
<path fill-rule="evenodd" clip-rule="evenodd" d="M256.393 409.515H246.475V416.433H256.393V409.515ZM255.078 415.069H247.79V410.895H255.078V415.069Z" fill="#424242"/>
<path fill-rule="evenodd" clip-rule="evenodd" d="M281.444 421.014H271.51V427.932H281.444V421.014ZM280.113 426.568H272.825V422.394H280.113V426.568Z" fill="#424242"/>
<path fill-rule="evenodd" clip-rule="evenodd" d="M268.912 421.014H258.993V427.932H268.912V421.014ZM267.596 426.568H260.308V422.394H267.596V426.568Z" fill="#424242"/>
<path fill-rule="evenodd" clip-rule="evenodd" d="M256.393 421.014H246.475V427.932H256.393V421.014ZM255.078 426.568H247.79V422.394H255.078V426.568Z" fill="#424242"/>
<path fill-rule="evenodd" clip-rule="evenodd" d="M281.444 432.511H271.51V439.429H281.444V432.511ZM280.113 438.065H272.825V433.891H280.113V438.065Z" fill="#424242"/>
<path fill-rule="evenodd" clip-rule="evenodd" d="M268.912 432.511H258.993V439.429H268.912V432.511ZM267.596 438.065H260.308V433.891H267.596V438.065Z" fill="#424242"/>
<path fill-rule="evenodd" clip-rule="evenodd" d="M256.393 432.511H246.475V439.429H256.393V432.511ZM255.078 438.065H247.79V433.891H255.078V438.065Z" fill="#424242"/>
<path fill-rule="evenodd" clip-rule="evenodd" d="M281.444 444.01H271.51V450.928H281.444V444.01ZM280.113 449.564H272.825V445.406H280.113V449.564Z" fill="#424242"/>
<path fill-rule="evenodd" clip-rule="evenodd" d="M268.912 444.01H258.993V450.928H268.912V444.01ZM267.596 449.564H260.308V445.406H267.596V449.564Z" fill="#424242"/>
<path fill-rule="evenodd" clip-rule="evenodd" d="M256.393 444.01H246.475V450.928H256.393V444.01ZM255.078 449.564H247.79V445.406H255.078V449.564Z" fill="#424242"/>
<path fill-rule="evenodd" clip-rule="evenodd" d="M281.444 455.508H271.51V462.426H281.444V455.508ZM280.113 461.062H272.825V456.888H280.113V461.062Z" fill="#424242"/>
<path fill-rule="evenodd" clip-rule="evenodd" d="M268.912 455.508H258.993V462.426H268.912V455.508ZM267.596 461.062H260.308V456.888H267.596V461.062Z" fill="#424242"/>
<path fill-rule="evenodd" clip-rule="evenodd" d="M256.393 455.508H246.475V462.426H256.393V455.508ZM255.078 461.062H247.79V456.888H255.078V461.062Z" fill="#424242"/>
<path fill-rule="evenodd" clip-rule="evenodd" d="M281.444 467.006H271.51V473.924H281.444V467.006ZM280.113 472.56H272.825V468.403H280.113V472.56Z" fill="#424242"/>
<path fill-rule="evenodd" clip-rule="evenodd" d="M268.912 467.006H258.993V473.924H268.912V467.006ZM267.596 472.56H260.308V468.403H267.596V472.56Z" fill="#424242"/>
<path fill-rule="evenodd" clip-rule="evenodd" d="M256.393 467.006H246.475V473.924H256.393V467.006ZM255.078 472.56H247.79V468.403H255.078V472.56Z" fill="#424242"/>
<path fill-rule="evenodd" clip-rule="evenodd" d="M281.444 478.505H271.51V485.423H281.444V478.505ZM280.113 484.043H272.825V479.885H280.113V484.043Z" fill="#424242"/>
<path fill-rule="evenodd" clip-rule="evenodd" d="M268.912 478.505H258.993V485.423H268.912V478.505ZM267.596 484.043H260.308V479.885H267.596V484.043Z" fill="#424242"/>
<path fill-rule="evenodd" clip-rule="evenodd" d="M256.393 478.505H246.475V485.423H256.393V478.505ZM255.078 484.043H247.79V479.885H255.078V484.043Z" fill="#424242"/>
<path fill-rule="evenodd" clip-rule="evenodd" d="M281.444 490.003H271.51V496.921H281.444V490.003ZM280.113 495.557H272.825V491.4H280.113V495.557Z" fill="#424242"/>
<path fill-rule="evenodd" clip-rule="evenodd" d="M268.912 490.003H258.993V496.921H268.912V490.003ZM267.596 495.557H260.308V491.4H267.596V495.557Z" fill="#424242"/>
<path fill-rule="evenodd" clip-rule="evenodd" d="M256.393 490.003H246.475V496.921H256.393V490.003ZM255.078 495.557H247.79V491.4H255.078V495.557Z" fill="#424242"/>
<path fill-rule="evenodd" clip-rule="evenodd" d="M281.444 501.501H271.51V508.419H281.444V501.501ZM280.113 507.055H272.825V502.898H280.113V507.055Z" fill="#424242"/>
<path fill-rule="evenodd" clip-rule="evenodd" d="M268.912 501.501H258.993V508.419H268.912V501.501ZM267.596 507.055H260.308V502.898H267.596V507.055Z" fill="#424242"/>
<path fill-rule="evenodd" clip-rule="evenodd" d="M256.393 501.501H246.475V508.419H256.393V501.501ZM255.078 507.055H247.79V502.898H255.078V507.055Z" fill="#424242"/>
<path fill-rule="evenodd" clip-rule="evenodd" d="M265.213 311.308H280.624V300.265H265.213V311.308ZM266.543 301.661H279.309V309.928H266.543V301.661Z" fill="#424242"/>
<path fill-rule="evenodd" clip-rule="evenodd" d="M261.839 300.265H246.443V311.308H261.839V300.265ZM260.524 309.912H247.759V301.645H260.524V309.912Z" fill="#424242"/>
<path fill-rule="evenodd" clip-rule="evenodd" d="M265.213 326.088H280.624V315.061H265.213V326.088ZM266.543 316.441H279.309V324.707H266.543V316.441Z" fill="#424242"/>
<path fill-rule="evenodd" clip-rule="evenodd" d="M261.839 315.061H246.443V326.088H261.839V315.061ZM260.524 324.707H247.759V316.441H260.524V324.707Z" fill="#424242"/>
<path fill-rule="evenodd" clip-rule="evenodd" d="M265.213 340.883H280.624V329.839H265.213V340.883ZM266.543 331.236H279.309V339.502H266.543V331.236Z" fill="#424242"/>
<path fill-rule="evenodd" clip-rule="evenodd" d="M261.839 329.839H246.443V340.883H261.839V329.839ZM260.524 339.486H247.759V331.219H260.524V339.486Z" fill="#424242"/>
<path fill-rule="evenodd" clip-rule="evenodd" d="M265.213 355.662H280.624V344.618H265.213V355.662ZM266.543 346.015H279.309V354.281H266.543V346.015Z" fill="#424242"/>
<path fill-rule="evenodd" clip-rule="evenodd" d="M261.839 344.618H246.443V355.662H261.839V344.618ZM260.524 354.265H247.759V345.999H260.524V354.265Z" fill="#424242"/>
<path fill-rule="evenodd" clip-rule="evenodd" d="M234.25 422.653H227.659V429.572H234.25V422.653ZM232.935 428.208H228.974V424.05H232.935V428.208Z" fill="#424242"/>
<path d="M341.688 484.663L336.487 479.779L159.422 293.947L-22.3089 484.663H-52.8136V504.251H-70.0952C-70.5118 504.251 -70.8569 504.601 -70.8569 505.05V580.203C-70.8569 580.652 -70.5118 581.002 -70.0952 581.002H371.467C371.883 581.002 372.228 580.652 372.228 580.203V505.85V505.05V484.663H341.688Z" fill="white"/>
<path fill-rule="evenodd" clip-rule="evenodd" d="M343.39 486.262H-23.832L159.422 293.947L336.487 479.779L343.39 486.262ZM-20.1543 484.663H339.415L335.452 480.928L159.422 296.208L-20.1543 484.663Z" fill="#424242"/>
<path d="M4.82804 486.025L3.75684 484.901L172.003 308.288L173.074 309.412L4.82804 486.025Z" fill="#424242"/>
<path d="M31.548 486.025L30.4648 484.9L185.357 322.304L186.44 323.428L31.548 486.025Z" fill="#424242"/>
<path d="M58.256 486.025L57.1729 484.901L198.711 336.32L199.794 337.445L58.256 486.025Z" fill="#424242"/>
<path d="M84.9633 486.026L83.8921 484.901L212.064 350.337L213.147 351.461L84.9633 486.026Z" fill="#424242"/>
<path d="M217.266 486.037L216.195 484.9L278.24 419.779L279.323 420.916L217.266 486.037Z" fill="#424242"/>
<path d="M242.355 486.038L241.272 484.901L290.796 432.959L291.867 434.083L242.355 486.038Z" fill="#424242"/>
<path d="M267.456 486.038L266.385 484.901L303.352 446.101L304.423 447.237L267.456 486.038Z" fill="#424242"/>
<path d="M292.534 486.037L291.462 484.901L315.873 459.279L316.956 460.416L292.534 486.037Z" fill="#424242"/>
<path d="M317.623 486.037L316.54 484.901L328.43 472.434L329.501 473.558L317.623 486.037Z" fill="#424242"/>
<path d="M133.012 463.627L131.94 462.503L225.418 364.353L226.501 365.477L133.012 463.627Z" fill="#424242"/>
<path d="M159.72 463.627L158.649 462.503L238.773 378.369L239.856 379.493L159.72 463.627Z" fill="#424242"/>
<path d="M186.426 463.626L185.355 462.502L252.161 392.384L253.232 393.521L186.426 463.626Z" fill="#424242"/>
<path d="M199.793 477.643L198.71 476.518L265.515 406.4L266.587 407.537L199.793 477.643Z" fill="#424242"/>
<path d="M313.517 486.013L145.497 309.688L146.58 308.563L314.6 484.876L313.517 486.013Z" fill="#424242"/>
<path d="M286.797 486.025L132.155 323.716L133.226 322.579L287.88 484.901L286.797 486.025Z" fill="#424242"/>
<path d="M260.089 486.025L118.801 337.731L119.872 336.595L261.172 484.9L260.089 486.025Z" fill="#424242"/>
<path d="M233.381 486.025L105.447 351.748L106.518 350.611L234.464 484.901L233.381 486.025Z" fill="#424242"/>
<path d="M185.356 463.627L92.0806 365.739L93.1636 364.603L186.427 462.503L185.356 463.627Z" fill="#424242"/>
<path d="M158.648 463.627L78.7266 379.755L79.8096 378.618L159.719 462.502L158.648 463.627Z" fill="#424242"/>
<path d="M49.2576 486.037L13.3613 448.361L14.4325 447.225L50.3287 484.901L49.2576 486.037Z" fill="#424242"/>
<path d="M25.5608 486.038L1.53076 460.804L2.60196 459.667L26.6439 484.901L25.5608 486.038Z" fill="#424242"/>
<path d="M2.65066 486.037L-9.92969 472.833L-8.85848 471.696L3.72187 484.9L2.65066 486.037Z" fill="#424242"/>
<path d="M131.941 463.627L65.3735 393.772L66.4566 392.635L133.012 462.503L131.941 463.627Z" fill="#424242"/>
<path d="M118.588 477.643L52.02 407.787L53.1031 406.65L119.659 476.518L118.588 477.643Z" fill="#424242"/>
<path d="M99.8291 486.025L38.665 421.804L39.7482 420.667L100.912 484.901L99.8291 486.025Z" fill="#424242"/>
<path d="M73.1216 486.025L25.3115 435.819L26.3946 434.683L74.2046 484.901L73.1216 486.025Z" fill="#424242"/>
<path d="M126.799 485.463H125.275V469.823H126.799V485.463Z" fill="#424242"/>
<path d="M148.163 485.462H146.651V463.289H148.163V485.462Z" fill="#424242"/>
<path d="M172.206 485.463H170.683V463.29H172.206V485.463Z" fill="#424242"/>
<path d="M193.569 485.463H192.057V470.322H193.569V485.463Z" fill="#424242"/>
<path d="M111.672 486.026L110.601 484.901L132.167 462.266H186.214L207.744 484.901L206.673 486.026L185.583 463.865H132.786L111.672 486.026Z" fill="#424242"/>
<path fill-rule="evenodd" clip-rule="evenodd" d="M372.228 505.85H-52.8135V484.663H372.228V505.85ZM-51.2901 504.251H370.705V486.262H-51.2901V504.251Z" fill="#424242"/>
<path d="M176.246 63.505C174.63 63.505 173.202 64.2835 172.227 65.492C170.744 60.0537 166.027 56.0563 160.37 56.0563C156.13 56.0563 152.387 58.299 150.151 61.7154C147.184 51.7335 138.293 44.4708 127.798 44.4708C121 44.4708 114.899 47.5386 110.615 52.3843C104.382 36.6503 89.6013 25.5645 72.352 25.5645C50.7406 25.5645 33.0152 42.9253 31.0999 65.0853C30.1477 64.1092 28.8634 63.505 27.4351 63.505C24.5123 63.505 22.1431 65.9917 22.1431 69.0595H181.527C181.527 65.9917 179.158 63.505 176.246 63.505Z" stroke="#333333" stroke-linecap="round" stroke-linejoin="round"/>
<path d="M80.3342 33.0251C77.7509 32.3976 75.0901 32.08 72.3518 32.0723C55.0139 32.0723 40.5988 44.9709 37.6649 62.5525M100.85 47.3066C97.8714 42.9954 94.0627 39.4396 89.7006 36.8483M26.7928 69.7572H26.7817" stroke="#333333" stroke-linecap="round" stroke-linejoin="round"/>
<path d="M103.695 171.086V151.541" stroke="#333333" stroke-linecap="round" stroke-linejoin="round"/>
<path d="M103.695 208.225V188.68" stroke="#333333" stroke-linecap="round" stroke-linejoin="round"/>
<path d="M95.3252 179.883H76.6919" stroke="#333333" stroke-linecap="round" stroke-linejoin="round"/>
<path d="M130.709 179.883H112.076" stroke="#333333" stroke-linecap="round" stroke-linejoin="round"/>
<path d="M98.7241 174.665L87.6749 163.068" stroke="#333333" stroke-linecap="round" stroke-linejoin="round"/>
<path d="M119.727 196.709L108.677 185.101" stroke="#333333" stroke-linecap="round" stroke-linejoin="round"/>
<path d="M98.7241 185.101L87.6749 196.709" stroke="#333333" stroke-linecap="round" stroke-linejoin="round"/>
<path d="M119.727 163.068L108.677 174.665" stroke="#333333" stroke-linecap="round" stroke-linejoin="round"/>
<path d="M283.916 192.41V184.555" stroke="#333333" stroke-linecap="round" stroke-linejoin="round"/>
<path d="M283.916 209.701V201.857" stroke="#333333" stroke-linecap="round" stroke-linejoin="round"/>
<path d="M279.421 197.128H271.937" stroke="#333333" stroke-linecap="round" stroke-linejoin="round"/>
<path d="M295.896 197.128H288.411" stroke="#333333" stroke-linecap="round" stroke-linejoin="round"/>
<path d="M167.024 104.003V96.1475" stroke="#333333" stroke-linecap="round" stroke-linejoin="round"/>
<path d="M167.024 121.294V113.45" stroke="#333333" stroke-linecap="round" stroke-linejoin="round"/>
<path d="M162.529 108.721H155.056" stroke="#333333" stroke-linecap="round" stroke-linejoin="round"/>
<path d="M179.003 108.721H171.53" stroke="#333333" stroke-linecap="round" stroke-linejoin="round"/>
</g>
<defs>
<clipPath id="clip0_56_2835">
<rect width="465" height="502" rx="20" fill="white"/>
</clipPath>
</defs>
</svg>
